<?xml version="1.0" encoding="UTF-8"?>
<svg id="Layer_1" data-name="Layer 1" xmlns="http://www.w3.org/2000/svg" viewBox="0 0 730 430">
  <defs>
    <style>
      .cls-1 {
        fill: #fff;
        stroke: #000;
      }

      .cls-1, .cls-2 {
        stroke-width: 2px;
      }

      .cls-1, .cls-2, .cls-3 {
        stroke-miterlimit: 10;
      }

      .cls-2 {
        stroke: #666;
        stroke-dasharray: 0 0 8 6;
      }

      .cls-2, .cls-3 {
        fill: none;
      }

      .cls-4 {
        fill: #0c9;
      }

      .cls-4, .cls-5 {
        stroke-width: 0px;
      }

      .cls-5 {
        fill: #000;
      }

      .cls-3 {
        stroke: #06c;
        stroke-width: 4px;
      }
    </style>
  </defs>
  <path class="cls-4" d="M504.79,202.56l9.81,21.29c39.2,85.07,101.53,138.26,169.43,144.58h0v11.25h-179.24v-177.13Z"/>
  <path class="cls-3" d="M45.79,368.06h0c67.89-6.32,130.23-59.52,169.43-144.58l65.67-142.52c41.08-89.16,127.47-89.16,168.56,0l65.67,142.52c39.2,85.07,101.53,138.26,169.43,144.58h0"/>
  <line class="cls-1" x1="10.59" y1="382.37" x2="719.41" y2="382.37"/>
  <line class="cls-1" x1="365" y1="391.37" x2="365" y2="373.37"/>
  <line id="dotted-right" class="cls-2" x1="505.03" y1="391.37" x2="505.03" y2="14.47"/>
  <path class="cls-5" d="M370.75,409.33c0,1.22-.07,2.25-.22,3.08-.15.83-.36,1.54-.65,2.12-.28.58-.63,1.1-1.03,1.56-1.08,1.22-2.37,1.83-3.85,1.83-.63,0-1.29-.14-1.96-.41s-1.29-.72-1.87-1.35c-.58-.63-1.04-1.49-1.4-2.58-.36-1.09-.53-2.4-.53-3.94,0-1.39.08-2.55.23-3.49.16-.93.34-1.63.55-2.1s.48-.93.8-1.4c1.06-1.48,2.45-2.22,4.16-2.22s3.15.74,4.16,2.22c.47.63.85,1.44,1.14,2.41s.44,2.4.44,4.27ZM367.34,409.17v-1.68c0-1.25-.05-2.28-.15-3.07s-.32-1.46-.66-1.98-.85-.79-1.53-.79c-.72,0-1.25.28-1.58.85s-.54,1.35-.63,2.36-.13,2.44-.13,4.3.04,3.21.13,4.22c.08,1.01.29,1.81.63,2.4.33.59.86.88,1.58.88.53,0,.96-.17,1.29-.51.33-.34.57-.81.71-1.4s.23-1.22.27-1.88.06-1.57.06-2.72v-.99Z"/>
  <g>
    <path class="cls-5" d="M453.52,407.7c0,.42-.12.77-.36,1.05-.24.28-.56.42-.96.42-.29,0-.53-.08-.71-.25s-.27-.38-.27-.64c0-.15.03-.33.08-.54.06-.18.09-.35.09-.5,0-.32-.11-.54-.32-.65-.22-.11-.43-.17-.63-.17-.6,0-1.16.33-1.68.98-.52.65-.93,1.42-1.24,2.31-.3.89-.46,1.61-.46,2.18,0,.62.15,1.02.45,1.19.3.17.6.26.92.26.62,0,1.18-.17,1.68-.5.51-.33.93-.71,1.28-1.14h1.11c-.49.73-1.17,1.39-2.04,1.98-.88.59-1.85.88-2.93.88-.95,0-1.69-.24-2.2-.71s-.78-1.11-.78-1.92c0-.95.27-1.93.82-2.93.55-1,1.31-1.83,2.28-2.47.97-.65,2.04-.97,3.22-.97.43,0,.81.06,1.13.17.32.12.6.28.84.48.23.2.41.43.52.69s.17.53.17.8Z"/>
    <path class="cls-5" d="M463.29,406.9c0,.43-.12.81-.36,1.14-.24.33-.54.5-.9.5-.31,0-.61-.18-.9-.54-.16-.21-.32-.32-.48-.32-.18,0-.44.17-.76.52-.32.34-.65.8-.99,1.38-.34.57-.67,1.23-1,1.97-.33.74-.61,1.5-.85,2.28l-.12.42h-2.41l1.61-5.75c.17-.55.26-.94.26-1.16,0-.08-.02-.16-.07-.24-.05-.08-.12-.12-.23-.12-.27,0-.54.19-.81.56-.27.37-.48.71-.62,1.02h-.94c.4-.79.8-1.41,1.21-1.84.41-.43.81-.74,1.2-.91.39-.17.74-.26,1.05-.26.55,0,.9.17,1.06.51.16.34.24.68.24,1,0,.59-.19,1.53-.57,2.81.39-.67.71-1.21.96-1.61.25-.4.55-.82.89-1.25.34-.43.71-.78,1.1-1.06s.76-.41,1.13-.41c.53,0,.88.15,1.05.45.17.3.26.6.26.9Z"/>
    <path class="cls-5" d="M469.04,411.79c-.27.59-.68,1.2-1.25,1.83s-1.28.93-2.13.93c-.57,0-1-.14-1.29-.42-.29-.28-.43-.62-.43-1.01s.13-.95.38-1.65l1.32-3.62c.13-.33.19-.55.19-.67,0-.08-.03-.14-.09-.21s-.13-.09-.21-.09c-.23,0-.49.18-.76.54-.28.36-.48.69-.62.97h-.9c.4-.9.93-1.6,1.57-2.1.65-.5,1.29-.74,1.93-.74.45,0,.83.11,1.12.33.3.22.45.52.45.89,0,.39-.08.78-.23,1.18l-1.6,4.3c-.11.29-.16.53-.16.72,0,.08.03.16.1.24.06.08.13.12.21.12.21,0,.42-.11.64-.33s.49-.62.82-1.21h.94ZM469.8,401.42c0,.37-.13.69-.39.95-.26.26-.57.39-.93.39-.38,0-.7-.13-.96-.39-.26-.26-.38-.58-.38-.95s.13-.66.38-.93c.26-.26.58-.39.96-.39.25,0,.47.06.67.18.2.12.36.28.48.47.12.19.17.42.17.67Z"/>
    <path class="cls-5" d="M476.72,405.85l-.29.94h-2.04l-1.55,5.07c-.12.36-.17.62-.17.79,0,.14.05.28.14.39.1.12.22.18.36.18.4,0,.75-.19,1.05-.58.3-.39.57-.81.81-1.26h.96c-.38.85-.81,1.51-1.3,1.98-.48.48-.93.79-1.35.94-.42.15-.8.23-1.15.23-.59,0-1.05-.17-1.37-.51-.33-.34-.49-.8-.49-1.36,0-.39.1-.92.31-1.59l1.33-4.29h-1.92l.3-.94h1.91l.94-3.13h2.44l-.94,3.13h2.03Z"/>
    <path class="cls-5" d="M482.61,411.79c-.27.59-.68,1.2-1.25,1.83s-1.28.93-2.13.93c-.57,0-1-.14-1.29-.42-.29-.28-.43-.62-.43-1.01s.13-.95.38-1.65l1.32-3.62c.13-.33.19-.55.19-.67,0-.08-.03-.14-.09-.21s-.13-.09-.21-.09c-.23,0-.49.18-.76.54-.28.36-.48.69-.62.97h-.9c.4-.9.93-1.6,1.57-2.1.65-.5,1.29-.74,1.93-.74.45,0,.83.11,1.12.33.3.22.45.52.45.89,0,.39-.08.78-.23,1.18l-1.6,4.3c-.11.29-.16.53-.16.72,0,.08.03.16.1.24.06.08.13.12.21.12.21,0,.42-.11.64-.33s.49-.62.82-1.21h.94ZM483.37,401.42c0,.37-.13.69-.39.95-.26.26-.57.39-.93.39-.38,0-.7-.13-.96-.39-.26-.26-.38-.58-.38-.95s.13-.66.38-.93c.26-.26.58-.39.96-.39.25,0,.47.06.67.18.2.12.36.28.48.47.12.19.17.42.17.67Z"/>
    <path class="cls-5" d="M492.47,407.7c0,.42-.12.77-.36,1.05-.24.28-.56.42-.96.42-.29,0-.53-.08-.71-.25s-.27-.38-.27-.64c0-.15.03-.33.08-.54.06-.18.09-.35.09-.5,0-.32-.11-.54-.32-.65-.22-.11-.43-.17-.63-.17-.6,0-1.16.33-1.68.98-.52.65-.93,1.42-1.24,2.31-.3.89-.46,1.61-.46,2.18,0,.62.15,1.02.45,1.19.3.17.6.26.92.26.62,0,1.18-.17,1.68-.5.51-.33.93-.71,1.28-1.14h1.11c-.49.73-1.17,1.39-2.04,1.98-.88.59-1.85.88-2.93.88-.95,0-1.69-.24-2.2-.71s-.78-1.11-.78-1.92c0-.95.27-1.93.82-2.93.55-1,1.31-1.83,2.28-2.47.97-.65,2.04-.97,3.22-.97.43,0,.81.06,1.13.17.32.12.6.28.84.48.23.2.41.43.52.69s.17.53.17.8Z"/>
    <path class="cls-5" d="M503.54,411.79c-.2.4-.42.77-.67,1.11s-.52.63-.82.88-.6.44-.91.57c-.3.13-.62.19-.95.19-.72,0-1.18-.22-1.38-.65-.2-.43-.3-.95-.3-1.55-.55.65-1.09,1.18-1.62,1.59s-1.14.62-1.83.62c-.4,0-.74-.11-1-.33-.27-.22-.46-.52-.59-.9-.13-.38-.19-.78-.19-1.21,0-.92.24-1.9.71-2.92s1.11-1.89,1.92-2.58c.81-.7,1.68-1.05,2.62-1.05.43,0,.77.09,1.02.26.25.17.42.36.51.57.09.21.17.45.24.71l.38-1.28h2.27l-1.91,6.26c-.14.45-.21.72-.21.82,0,.09.03.16.09.22.06.06.12.09.2.09.44,0,.92-.47,1.43-1.42h.99ZM499.72,407.7c0-.33-.06-.62-.19-.86-.13-.24-.36-.36-.69-.36-.51,0-1.01.3-1.49.89-.48.59-.87,1.31-1.17,2.14-.3.84-.45,1.54-.45,2.12,0,.83.26,1.24.78,1.24.36,0,.73-.17,1.11-.5.38-.33.73-.77,1.05-1.33.33-.57.59-1.16.77-1.74.18-.59.27-1.12.27-1.6Z"/>
    <path class="cls-5" d="M510.78,400.1l-3.59,11.76c-.18.58-.28.94-.28,1.09,0,.12.03.21.08.28s.13.1.22.1c.18,0,.42-.16.74-.48s.56-.69.75-1.1h.96c-.33.64-.78,1.26-1.34,1.88s-1.26.92-2.1.92c-.51,0-.92-.14-1.24-.42-.31-.28-.47-.63-.47-1.03,0-.31.11-.83.32-1.55l2.62-8.55c.17-.56.26-.93.26-1.12,0-.24-.1-.4-.29-.47-.19-.08-.56-.11-1.09-.11l.25-.94h1.1c.47,0,.9-.02,1.29-.05s.76-.1,1.12-.2h.7Z"/>
    <path class="cls-5" d="M526.18,407.14c0,.75-.19,1.56-.58,2.44-.39.88-.92,1.7-1.58,2.45-.66.76-1.41,1.37-2.24,1.83-.83.46-1.65.7-2.47.7-.39,0-.77-.07-1.13-.21-.37-.14-.67-.37-.92-.7-.25-.33-.37-.75-.37-1.27,0-.62.17-1.18.5-1.67.33-.49.81-1,1.43-1.53.5-.42.87-.77,1.12-1.04.25-.27.46-.58.64-.93-.51.36-1.02.54-1.53.54-.33,0-.69-.11-1.08-.32-.22-.12-.39-.18-.52-.18-.31,0-.52.2-.63.61h-.86c.46-1.52,1.16-2.29,2.09-2.29.45,0,.95.23,1.5.68.17.14.31.23.4.28.1.05.19.07.28.07.3,0,.5-.19.59-.56.07-.31.21-.46.42-.46.16,0,.28.05.37.15.09.1.13.23.13.39,0,.36-.1.74-.3,1.14-.2.41-.46.86-.78,1.36-.55.88-.92,1.56-1.13,2.05s-.31.93-.31,1.31c0,.4.13.7.39.88.26.18.56.27.89.27.67,0,1.31-.25,1.92-.74s1.11-1.08,1.48-1.76c.38-.68.56-1.27.56-1.78,0-.32-.05-.69-.16-1.12-.1-.35-.15-.66-.15-.94,0-.44.1-.76.3-.94.2-.19.42-.28.65-.28.31,0,.56.14.76.43s.3.67.3,1.15Z"/>
    <path class="cls-5" d="M537.66,411.79c-.2.4-.42.77-.67,1.11s-.52.63-.82.88-.6.44-.91.57c-.3.13-.62.19-.95.19-.72,0-1.18-.22-1.38-.65-.2-.43-.3-.95-.3-1.55-.55.65-1.09,1.18-1.62,1.59s-1.14.62-1.83.62c-.4,0-.74-.11-1-.33-.27-.22-.46-.52-.59-.9-.13-.38-.19-.78-.19-1.21,0-.92.24-1.9.71-2.92s1.11-1.89,1.92-2.58c.81-.7,1.68-1.05,2.62-1.05.43,0,.77.09,1.02.26.25.17.42.36.51.57.09.21.17.45.24.71l.38-1.28h2.27l-1.91,6.26c-.14.45-.21.72-.21.82,0,.09.03.16.09.22.06.06.12.09.2.09.44,0,.92-.47,1.43-1.42h.99ZM533.83,407.7c0-.33-.06-.62-.19-.86-.13-.24-.36-.36-.69-.36-.51,0-1.01.3-1.49.89-.48.59-.87,1.31-1.17,2.14-.3.84-.45,1.54-.45,2.12,0,.83.26,1.24.78,1.24.36,0,.73-.17,1.11-.5.38-.33.73-.77,1.05-1.33.33-.57.59-1.16.77-1.74.18-.59.27-1.12.27-1.6Z"/>
    <path class="cls-5" d="M544.9,400.1l-3.59,11.76c-.18.58-.28.94-.28,1.09,0,.12.03.21.08.28s.13.1.22.1c.18,0,.42-.16.74-.48s.56-.69.75-1.1h.96c-.33.64-.78,1.26-1.34,1.88s-1.26.92-2.1.92c-.51,0-.92-.14-1.24-.42-.31-.28-.47-.63-.47-1.03,0-.31.11-.83.32-1.55l2.62-8.55c.17-.56.26-.93.26-1.12,0-.24-.1-.4-.29-.47-.19-.08-.56-.11-1.09-.11l.25-.94h1.1c.47,0,.9-.02,1.29-.05s.76-.1,1.12-.2h.7Z"/>
    <path class="cls-5" d="M556.26,411.67c-.28.68-.69,1.33-1.22,1.95s-1.25.93-2.15.93c-.56,0-.96-.15-1.18-.45-.23-.3-.34-.65-.34-1.04,0-.17.03-.4.1-.68.06-.28.15-.59.25-.93l.34-1.16c-.73,1.19-1.49,2.2-2.26,3.03s-1.64,1.24-2.59,1.24c-.49,0-.86-.14-1.12-.42s-.39-.61-.39-.99c0-.36.1-.85.29-1.47l1.04-3.38c.14-.41.21-.7.21-.88,0-.08-.03-.17-.08-.25-.05-.09-.14-.13-.26-.13-.4,0-.91.48-1.53,1.44h-.94c.46-.75.98-1.4,1.55-1.96.57-.56,1.28-.84,2.14-.84.39,0,.75.1,1.07.31.32.21.49.6.49,1.16,0,.33-.04.64-.13.9l-.84,2.73c-.19.63-.29,1.08-.29,1.36,0,.15.05.29.14.43.09.14.22.21.38.21.32,0,.72-.25,1.19-.73.47-.49.99-1.25,1.54-2.29.56-1.04,1.1-2.33,1.64-3.89h2.44l-1.92,6.26c-.12.44-.18.71-.18.8,0,.08.03.17.1.25.06.08.14.13.21.13.25,0,.5-.17.73-.51s.44-.71.63-1.11h.96Z"/>
    <path class="cls-5" d="M566.32,407.26c0,.28-.09.6-.26.97-.17.37-.48.75-.94,1.16-.46.41-1.1.77-1.95,1.09-.84.31-1.91.53-3.18.65l-.25.02c-.05.27-.08.53-.08.76,0,.51.12.87.36,1.09.24.22.6.33,1.06.33,1.03,0,2.01-.55,2.94-1.66h1.09c-.42.65-1.07,1.29-1.93,1.93s-1.88.95-3.07.95c-.82,0-1.52-.22-2.11-.66-.58-.44-.88-1.09-.88-1.94,0-1.05.29-2.06.87-3.05.58-.99,1.37-1.79,2.38-2.41,1-.62,2.1-.93,3.28-.93.95,0,1.63.16,2.04.48s.61.73.61,1.22ZM564.16,407.22c0-.23-.08-.43-.24-.62-.16-.19-.37-.28-.65-.28-.48,0-.92.17-1.32.5-.4.33-.74.72-1.01,1.17s-.5.91-.67,1.38c-.17.46-.28.75-.32.86,1.39-.23,2.44-.63,3.14-1.18.71-.55,1.06-1.16,1.06-1.83Z"/>
  </g>
  <g>
    <path class="cls-5" d="M245.94,330.59c1.66,0,3.12-.03,3.67-.08,0,.57,0,2.52.05,3.74-.1.21-.57.26-.83.1-.26-1.51-.68-2.26-1.66-2.52-.7-.18-1.35-.21-2.18-.21h-1.33c-1.09,0-1.09.05-1.09,1.51v4.65c0,.65.03.7.62.7h1.53c2.26,0,2.65-.05,2.91-1.14l.21-.88c.16-.18.65-.18.78.03-.03.68-.08,1.64-.08,2.6s.05,1.9.08,2.7c-.13.21-.62.21-.78.03l-.21-1.01c-.23-1.09-.65-1.14-2.91-1.14h-1.53c-.6,0-.62.05-.62.7v3.64c0,2.76.23,2.78,1.46,2.94l1.09.13c.18.18.16.65-.05.75-1.66-.05-2.83-.08-3.98-.08s-2.31.03-3.51.08c-.21-.1-.23-.57-.05-.75l.57-.08c1.22-.16,1.46-.23,1.46-2.99v-9.67c0-2.76-.23-2.83-1.46-3.02l-.34-.05c-.18-.18-.16-.65.05-.75.91.05,2.08.08,3.22.08h4.91Z"/>
    <path class="cls-5" d="M258.39,344.44c-.08,1.51.31,2.29,1.25,2.29.44,0,.81-.29.88-.29.13,0,.31.29.23.52-.52.73-1.79,1.14-2.6,1.14-.65,0-1.38-.18-1.87-.73-.18-.18-.29-.31-.42-.31s-.31.13-.7.36c-.49.31-1.27.68-2.21.68-1.77,0-2.65-1.22-2.65-2.52,0-.94.36-1.79,2.16-2.42.91-.31,1.9-.68,2.86-1.04.52-.18.6-.42.6-.68l.03-.68c.05-1.33-.31-2.47-1.59-2.47-.73,0-1.27.39-1.38,1.14-.05.49-.21.75-.49.94-.36.23-1.09.47-1.66.47-.34,0-.49-.18-.49-.42,0-.31.16-.86,1.01-1.66.81-.75,2.68-1.64,4-1.64,2.05,0,3.33.96,3.22,3.25l-.18,4.06ZM255.84,343.56c0-.29-.08-.44-.21-.44-.21,0-.68.13-1.14.31-.73.26-1.4.62-1.4,1.74,0,.68.47,1.51,1.46,1.51.94,0,1.22-.62,1.25-1.25l.05-1.87Z"/>
    <path class="cls-5" d="M265.41,344.65c0,1.92.1,2.18.99,2.34l.47.08c.18.18.16.65-.05.75-.96-.05-1.85-.08-2.81-.08-.86,0-1.74.03-2.73.08-.21-.1-.23-.57-.05-.75l.47-.08c.88-.16.99-.42.99-2.34v-3.82c0-1.17,0-1.48-.65-1.87l-.31-.18c-.08-.1-.08-.47.03-.6,1.35-.39,2.65-.96,3.38-1.4.16.03.29.08.36.21-.05.86-.08,2.11-.08,3.17v4.5ZM262.45,333.18c0-.88.65-1.56,1.59-1.56s1.59.68,1.59,1.56-.65,1.56-1.59,1.56-1.59-.68-1.59-1.56Z"/>
    <path class="cls-5" d="M269.39,333.5c0-1.74-.03-1.9-.68-2.31l-.29-.18c-.16-.1-.18-.52,0-.6,1.01-.29,2.37-.83,3.41-1.25.16-.03.31.08.36.21-.05,1.04-.08,2.65-.08,3.77v11.52c0,1.92.1,2.21.99,2.34l.57.08c.18.18.16.65-.05.75-1.07-.05-1.95-.08-2.91-.08-.86,0-1.74.03-2.81.08-.21-.1-.23-.57-.05-.75l.55-.08c.88-.13.99-.42.99-2.34v-11.15Z"/>
    <path class="cls-5" d="M285.84,338.64c-.47,0-.49.05-.49.88v4c0,1.64.23,3.09,1.9,3.09.52,0,.83-.18,1.25-.47.23.03.39.23.34.52-.52.73-1.72,1.43-3.3,1.43-2.47,0-2.91-1.43-2.91-3.25v-5.28c0-.91-.05-.94-.47-.94h-.91c-.26-.13-.31-.55-.08-.7.88-.34,1.48-.68,2.05-1.09.49-.36,1.07-.91,1.43-1.61.23-.16.6-.08.73.13v1.56c0,.42,0,.49.49.49h2.57c.16.08.21.29.21.55-.03.31-.13.55-.34.68h-2.47Z"/>
    <path class="cls-5" d="M300.77,342.49c0,3.69-2.6,5.62-5.69,5.62s-5.49-1.9-5.49-5.3,2.65-5.67,5.69-5.67,5.49,1.98,5.49,5.36ZM295.39,347.07c1.79,0,2.31-2.13,2.31-4.13,0-2.18-.75-4.76-2.68-4.76-1.33,0-2.37,1.35-2.37,4.24,0,2.37.86,4.65,2.73,4.65Z"/>
    <path class="cls-5" d="M310.26,340.83c0-1.17,0-1.48-.65-1.87l-.31-.18c-.08-.1-.08-.47.03-.6,1.12-.36,2.5-.94,3.28-1.4.16,0,.31.08.36.23-.03.49-.05.94-.05,1.17,0,.18.1.31.26.31.81-.57,1.66-1.35,2.55-1.35s1.43.6,1.43,1.27c0,1.01-.75,1.51-1.46,1.51-.26,0-.49-.08-.7-.21-.65-.44-1.09-.49-1.25-.49-.6,0-.75.6-.75,1.87v3.56c0,1.92.1,2.21,1.01,2.31l1.01.1c.18.18.16.65-.05.75-1.56-.05-2.44-.08-3.41-.08-.86,0-1.72.03-2.7.08-.21-.1-.23-.57-.05-.75l.47-.08c.88-.16.99-.42.99-2.34v-3.82Z"/>
    <path class="cls-5" d="M320.27,341.58c-.49,0-.55.03-.55.34,0,2.34,1.61,4.21,3.93,4.21,1.04,0,1.9-.34,2.5-1.3.26-.08.55.18.57.42-.88,2.08-2.81,2.86-4.39,2.86-3.02,0-5.02-2.24-5.02-5.2s2-5.77,5.49-5.77c1.92,0,3.9,1.25,3.9,3.51,0,.23-.03.39-.13.6-.16.23-.75.34-1.79.34h-4.5ZM322.66,340.54c.75,0,1.09-.08,1.27-.18.16-.1.26-.31.26-.55,0-.94-.6-1.69-1.72-1.69-1.74,0-2.55,1.69-2.55,2.24,0,.1.05.18.36.18h2.37Z"/>
    <path class="cls-5" d="M332.12,346.37c0,1.79-.16,3.17-.6,4.19-.83,1.95-2.63,3.33-4.55,4.19-.29-.05-.44-.39-.34-.73.68-.36,1.33-.86,1.69-1.4.6-.91,1.07-2.65,1.07-5.69v-6.08c0-1.17,0-1.48-.65-1.87l-.31-.18c-.08-.1-.08-.47.03-.6,1.35-.39,2.65-.96,3.38-1.4.16.03.29.08.36.21-.05.86-.08,2.11-.08,3.17v6.21ZM329.13,333.18c0-.88.65-1.56,1.59-1.56s1.59.68,1.59,1.56-.65,1.56-1.59,1.56-1.59-.68-1.59-1.56Z"/>
    <path class="cls-5" d="M337.64,341.58c-.49,0-.55.03-.55.34,0,2.34,1.61,4.21,3.93,4.21,1.04,0,1.9-.34,2.5-1.3.26-.08.55.18.57.42-.88,2.08-2.81,2.86-4.39,2.86-3.02,0-5.02-2.24-5.02-5.2s2-5.77,5.49-5.77c1.92,0,3.9,1.25,3.9,3.51,0,.23-.03.39-.13.6-.16.23-.75.34-1.79.34h-4.5ZM340.03,340.54c.75,0,1.09-.08,1.27-.18.16-.1.26-.31.26-.55,0-.94-.6-1.69-1.72-1.69-1.74,0-2.55,1.69-2.55,2.24,0,.1.05.18.36.18h2.37Z"/>
    <path class="cls-5" d="M353.94,337.5c.34.31.52.73.52,1.33,0,.83-.44,1.22-.65,1.22-.18,0-.31-.05-.49-.29-.57-.75-1.35-1.59-2.37-1.59-1.48,0-3.02,1.46-3.02,3.9,0,2.11,1.35,4.11,3.72,4.11,1.69,0,2.29-.62,2.81-1.38.23-.03.52.16.55.47-.94,2.11-2.94,2.83-4.58,2.83-1.38,0-2.73-.55-3.61-1.4-.91-.88-1.51-2.24-1.51-3.74,0-3.04,2.21-5.82,6.4-5.82.75,0,1.51.1,2.24.36Z"/>
    <path class="cls-5" d="M360.31,338.64c-.47,0-.49.05-.49.88v4c0,1.64.23,3.09,1.9,3.09.52,0,.83-.18,1.25-.47.23.03.39.23.34.52-.52.73-1.72,1.43-3.3,1.43-2.47,0-2.91-1.43-2.91-3.25v-5.28c0-.91-.05-.94-.47-.94h-.91c-.26-.13-.31-.55-.08-.7.88-.34,1.48-.68,2.05-1.09.49-.36,1.07-.91,1.43-1.61.23-.16.6-.08.73.13v1.56c0,.42,0,.49.49.49h2.57c.16.08.21.29.21.55-.03.31-.13.55-.34.68h-2.47Z"/>
  </g>
  <g>
    <path class="cls-5" d="M521.86,334.48c0-2.5-.03-2.81-1.25-2.94l-.68-.08c-.18-.18-.18-.6.03-.73,1.64-.16,3.85-.23,5.98-.23s3.8.26,4.94.88c1.33.7,2.29,1.92,2.29,3.8,0,2.39-1.85,3.59-3.12,4.11-.16.08-.1.29,0,.44,2.08,3.51,3.38,5.72,4.6,6.73.73.62,1.48.78,1.79.81.13.1.13.39.05.52-.31.08-.81.16-1.72.16-2.5,0-3.85-1.01-5.43-3.43-.7-1.09-1.43-2.52-2.05-3.54-.47-.78-.75-.88-1.61-.88-.78,0-.81.03-.81.57v3.33c0,2.76.23,2.83,1.46,2.99l.57.08c.18.18.16.65-.05.75-1.14-.05-2.31-.08-3.46-.08s-2.31.03-3.51.08c-.21-.1-.29-.57-.05-.75l.57-.08c1.22-.16,1.46-.23,1.46-2.99v-9.52ZM524.88,338.23c0,.83,0,.88,1.25.88,2.55,0,3.72-1.25,3.72-3.72,0-2.05-1.33-3.85-3.59-3.85-1.35,0-1.38.08-1.38,1.27v5.41Z"/>
    <path class="cls-5" d="M539.28,341.58c-.49,0-.55.03-.55.34,0,2.34,1.61,4.21,3.93,4.21,1.04,0,1.9-.34,2.5-1.3.26-.08.55.18.57.42-.88,2.08-2.81,2.86-4.39,2.86-3.02,0-5.02-2.24-5.02-5.2s2-5.77,5.49-5.77c1.92,0,3.9,1.25,3.9,3.51,0,.23-.03.39-.13.6-.16.23-.75.34-1.79.34h-4.5ZM541.67,340.54c.75,0,1.09-.08,1.27-.18.16-.1.26-.31.26-.55,0-.94-.6-1.69-1.72-1.69-1.74,0-2.55,1.69-2.55,2.24,0,.1.05.18.36.18h2.37Z"/>
    <path class="cls-5" d="M551.14,346.37c0,1.79-.16,3.17-.6,4.19-.83,1.95-2.63,3.33-4.55,4.19-.29-.05-.44-.39-.34-.73.68-.36,1.33-.86,1.69-1.4.6-.91,1.07-2.65,1.07-5.69v-6.08c0-1.17,0-1.48-.65-1.87l-.31-.18c-.08-.1-.08-.47.03-.6,1.35-.39,2.65-.96,3.38-1.4.16.03.29.08.36.21-.05.86-.08,2.11-.08,3.17v6.21ZM548.15,333.18c0-.88.65-1.56,1.59-1.56s1.59.68,1.59,1.56-.65,1.56-1.59,1.56-1.59-.68-1.59-1.56Z"/>
    <path class="cls-5" d="M556.65,341.58c-.49,0-.55.03-.55.34,0,2.34,1.61,4.21,3.93,4.21,1.04,0,1.9-.34,2.5-1.3.26-.08.55.18.57.42-.88,2.08-2.81,2.86-4.39,2.86-3.02,0-5.02-2.24-5.02-5.2s2-5.77,5.49-5.77c1.92,0,3.9,1.25,3.9,3.51,0,.23-.03.39-.13.6-.16.23-.75.34-1.79.34h-4.5ZM559.04,340.54c.75,0,1.09-.08,1.27-.18.16-.1.26-.31.26-.55,0-.94-.6-1.69-1.72-1.69-1.74,0-2.55,1.69-2.55,2.24,0,.1.05.18.36.18h2.37Z"/>
    <path class="cls-5" d="M572.95,337.5c.34.31.52.73.52,1.33,0,.83-.44,1.22-.65,1.22-.18,0-.31-.05-.49-.29-.57-.75-1.35-1.59-2.37-1.59-1.48,0-3.02,1.46-3.02,3.9,0,2.11,1.35,4.11,3.72,4.11,1.69,0,2.29-.62,2.81-1.38.23-.03.52.16.55.47-.94,2.11-2.94,2.83-4.58,2.83-1.38,0-2.73-.55-3.61-1.4-.91-.88-1.51-2.24-1.51-3.74,0-3.04,2.21-5.82,6.4-5.82.75,0,1.51.1,2.24.36Z"/>
    <path class="cls-5" d="M579.32,338.64c-.47,0-.49.05-.49.88v4c0,1.64.23,3.09,1.9,3.09.52,0,.83-.18,1.25-.47.23.03.39.23.34.52-.52.73-1.72,1.43-3.3,1.43-2.47,0-2.91-1.43-2.91-3.25v-5.28c0-.91-.05-.94-.47-.94h-.91c-.26-.13-.31-.55-.08-.7.88-.34,1.48-.68,2.05-1.09.49-.36,1.07-.91,1.43-1.61.23-.16.6-.08.73.13v1.56c0,.42,0,.49.49.49h2.57c.16.08.21.29.21.55-.03.31-.13.55-.34.68h-2.47Z"/>
  </g>
</svg>