<?xml version="1.0" encoding="UTF-8"?>
<svg id="Layer_1" xmlns="http://www.w3.org/2000/svg" version="1.1" viewBox="0 0 781.4 436.3">
  <!-- Generator: Adobe Illustrator 29.4.0, SVG Export Plug-In . SVG Version: 2.1.0 Build 152)  -->
  <defs>
    <style>
      .st0 {
        stroke-dasharray: 2.9 2.9;
      }

      .st0, .st1, .st2, .st3, .st4 {
        stroke-width: 2px;
      }

      .st0, .st1, .st2, .st3, .st4, .st5 {
        fill: none;
        stroke-miterlimit: 10;
      }

      .st0, .st1, .st2, .st4 {
        stroke: #999;
      }

      .st2 {
        stroke-dasharray: 2.9 2.9;
      }

      .st3 {
        stroke: #000;
      }

      .st4 {
        stroke-dasharray: 3.1 3.1;
      }

      .st5 {
        stroke: #0c9;
        stroke-width: 3px;
      }
    </style>
  </defs>
  <g id="axis">
    <line class="st3" x1="57.1" y1="371.3" x2="765.9" y2="371.3"/>
    <line class="st3" x1="57.8" y1="372" x2="57.8" y2="52.5"/>
    <g>
      <line class="st3" x1="234" y1="372.3" x2="234" y2="360.8"/>
      <line class="st3" x1="412" y1="372.3" x2="412" y2="360.8"/>
      <line class="st3" x1="589" y1="372.3" x2="589" y2="360.8"/>
      <line class="st3" x1="765" y1="372.3" x2="765" y2="360.8"/>
    </g>
    <g>
      <line class="st3" x1="58.8" y1="53.4" x2="70.8" y2="53.4"/>
      <line class="st3" x1="58.8" y1="106.4" x2="70.8" y2="106.4"/>
      <line class="st3" x1="58.8" y1="160.4" x2="70.8" y2="160.4"/>
      <line class="st3" x1="58.8" y1="212.3" x2="70.8" y2="212.3"/>
      <line class="st3" x1="58.8" y1="265.3" x2="70.8" y2="265.3"/>
      <line class="st3" x1="58.8" y1="318.3" x2="70.8" y2="318.3"/>
    </g>
  </g>
  <g id="variance">
    <line class="st3" x1="234.5" y1="265.2" x2="234.5" y2="129.9"/>
    <line class="st3" x1="412" y1="322.6" x2="412" y2="131.2"/>
    <line class="st3" x1="589.2" y1="356" x2="589.2" y2="148.9"/>
    <path class="st3" d="M589.2,163.2h0c1.1,19,10.8,36.4,26.2,47.4l36.5,25.9c12.4,8.8,12.4,23.2,0,32l-36.5,25.9c-15.4,11-25,28.4-26.2,47.4h0"/>
    <path class="st3" d="M412,146.3h0c1.1,17.1,10.8,32.8,26.2,42.7l36.5,23.4c12.4,7.9,12.4,20.9,0,28.9l-36.5,23.4c-15.4,9.9-25,25.6-26.2,42.7h0"/>
    <path class="st3" d="M234.5,139.7h0c1.1,12.3,10.8,23.6,26.2,30.7l36.5,16.8c12.4,5.7,12.4,15,0,20.7l-36.5,16.8c-15.4,7.1-25,18.4-26.2,30.7h0"/>
    <line class="st5" x1="166.5" y1="186.2" x2="762.7" y2="286.1"/>
  </g>
  <g id="labels_text_copy">
    <path d="M39.3,13.3c0,2-.7,4.2-2.1,6.6s-3.1,4.6-5.3,6.7-4.4,3.8-6.7,5.1-4.4,1.9-6.1,1.9-1.5-.2-2-.5-.8-.8-.8-1.4.2-.9.6-1.2.9-.5,1.4-.5.8,0,1.1.1.7.2,1.1.4c1,.3,1.7.5,2.2.5.8,0,1.5-.2,2.1-.7s1.1-1.1,1.5-1.8c1-1.7,1.4-4.1,1.4-7.1s0-1.5,0-2.4-.1-1.7-.2-2.5-.2-1.7-.4-2.4c0-.4-.2-.7-.5-1s-.5-.5-.8-.5c-.9,0-1.5,1-1.7,3.1h-1.4c.3-2.3.9-3.9,1.8-4.6s1.9-1.1,2.7-1.1c1.8,0,3,1,3.6,2.9s1,4.2,1,6.8-.1,4-.4,5.4c2.1-2.4,3.2-3.8,3.4-4,.5-.8,1-1.6,1.3-2.3s.5-1.5.5-2.2-.2-1.4-.6-2.4c-.4-1-.6-1.8-.6-2.2s.1-1,.4-1.4.6-.5,1.1-.5.8.1,1.1.4c.4.3.6.6.9,1.1s.3,1.1.3,1.8h0Z"/>
    <path d="M768.4,413.3c0,.8-.1,1.5-.3,2.2h-1.7c.2-.8.3-1.5.3-2.2s0-.3-.1-.5-.3-.3-.5-.3-.3,0-.5.2-.5.4-1,1l-3.3,3.5,1.5,4.7c.2.5.3.9.5,1.3s.4.5.6.5c.4,0,.8-.3,1.1-1s.6-1.2.7-1.7h1.6c-.3,1.3-.8,2.3-1.4,3.1s-1.2,1.4-1.8,1.8-1.2.5-1.8.5c-.9,0-1.6-.3-2.1-1s-.9-1.5-1.3-2.7l-.7-2.2-3.8,4.1c-1.1,1.2-2.1,1.8-2.8,1.8s-1.5-.7-1.5-2.1.2-2,.6-2.9h1.9c-.4,1.2-.7,2-.7,2.3s.1.5.3.5.5-.2,1-.7l4.5-4.8-.9-2.7c-.2-.6-.3-1-.4-1.2s-.2-.5-.4-.6-.3-.2-.6-.2c-.7,0-1.2.9-1.7,2.6h-1.6c.4-1.2.8-2.2,1.3-3.1s1-1.4,1.6-1.9,1.3-.6,2-.6,1.7.3,2.2,1,1,1.5,1.4,2.7l.3.9,2.7-2.9c1-1.1,2-1.6,2.8-1.6s1.4.3,1.6.8.4,1.1.4,1.6h0Z"/>
    <g>
      <path d="M51.3,381.3h.4v10.9c0,.9,0,1.5,0,1.7s.1.4.3.5.5.2.9.2h.4v.5h-4.6v-.5h.3c.5,0,.8,0,1-.2.1-.1.2-.3.3-.5,0-.2,0-.8,0-1.7v-7.3c0-.9,0-1.5,0-1.7,0-.2-.1-.4-.3-.5-.1-.1-.5-.2-1-.2h-.4v-.5c1.2,0,2.1-.3,2.6-.7h0Z"/>
      <path d="M56.6,388.3c0-2.1.4-3.9,1.2-5.1.8-1.3,1.9-1.9,3.2-1.9s2.4.6,3.2,1.9c.8,1.3,1.2,3,1.2,5.1s-.4,3.8-1.2,5.1-1.9,1.9-3.2,1.9-2.4-.6-3.2-1.9c-.8-1.3-1.2-3-1.2-5.1h0ZM58.3,388.3c0,2.8.2,4.6.7,5.4s1.1,1.1,2,1.1,1.7-.5,2.1-1.4c.4-.9.6-2.6.6-5.2s-.2-4.6-.7-5.4c-.5-.8-1.1-1.1-2-1.1s-1.5.4-2,1.1-.7,2.6-.7,5.4h0Z"/>
      <path d="M230.4,381.3h.5v10.9c0,.9,0,1.5,0,1.7s.1.4.3.5.5.2.9.2h.4v.5h-4.6v-.5h.3c.5,0,.8,0,1-.2.1-.1.2-.3.3-.5,0-.2,0-.8,0-1.7v-7.3c0-.9,0-1.5,0-1.7,0-.2-.1-.4-.3-.5-.1-.1-.5-.2-1-.2h-.4v-.5c1.2,0,2.1-.3,2.6-.7h0Z"/>
      <path d="M237.5,388h-.5l.3-6.4h5.3c-.3.7-.5,1.1-.6,1.2-.1.1-.4.2-.7.2h-3.6l-.2,4.2c.7-.9,1.5-1.3,2.5-1.3s2,.4,2.7,1.3,1.1,1.9,1.1,3.2-.4,2.7-1.3,3.6c-.9,1-2,1.4-3.6,1.4s-1.9-.2-2.5-.7c-.6-.5-.9-.9-.9-1.4s0-.3.2-.5.3-.2.5-.2.4,0,.5.2c.1.1.2.4.4.8.3.9.9,1.3,1.8,1.3s1.6-.4,2.2-1.1.9-1.9.9-3.4-.2-2.4-.7-3-1.1-.9-1.7-.9-1.7.5-2.2,1.5h0Z"/>
      <path d="M401.8,395.1v-.6c.8-.6,1.8-1.6,3-2.9s2-2.5,2.6-3.4.8-1.9.8-2.9-.3-2-.8-2.6-1.2-.8-2-.8-1.4.2-1.8.8-.6,1-.6,1.6.3,1.2.8,1.6c.2.1.3.2.3.3,0,.1-.1.3-.3.5s-.4.3-.6.3-.5-.2-.7-.6-.4-.9-.4-1.6c0-1,.4-1.9,1.2-2.5.8-.6,1.7-.9,2.7-.9s2,.3,2.8,1c.8.6,1.2,1.6,1.2,2.8s-.2,1.5-.5,2.2-1.3,1.8-2.7,3.2c-1.4,1.5-2.6,2.5-3.4,3.3h6.5l-.6,2.3h-.5c0-.1,0-.2,0-.4,0,0,0-.2,0-.3,0-.2,0-.3-.1-.4,0,0-.3,0-.7,0h-6.1Z"/>
      <path d="M411.5,388.3c0-2.1.4-3.9,1.2-5.1.8-1.3,1.9-1.9,3.2-1.9s2.4.6,3.2,1.9c.8,1.3,1.2,3,1.2,5.1s-.4,3.8-1.2,5.1-1.9,1.9-3.2,1.9-2.4-.6-3.2-1.9c-.8-1.3-1.2-3-1.2-5.1h0ZM413.2,388.3c0,2.8.2,4.6.7,5.4.5.8,1.1,1.1,2,1.1s1.7-.5,2.1-1.4c.4-.9.6-2.6.6-5.2s-.2-4.6-.7-5.4c-.5-.8-1.1-1.1-2-1.1s-1.5.4-2,1.1-.7,2.6-.7,5.4h0Z"/>
      <path d="M577.7,395.1v-.6c.8-.6,1.8-1.6,3-2.9s2-2.5,2.6-3.4.8-1.9.8-2.9-.3-2-.8-2.6-1.2-.8-2-.8-1.4.2-1.8.8-.6,1-.6,1.6.3,1.2.8,1.6c.2.1.3.2.3.3,0,.1-.1.3-.3.5s-.4.3-.6.3-.5-.2-.7-.6-.4-.9-.4-1.6c0-1,.4-1.9,1.2-2.5.8-.6,1.7-.9,2.7-.9s2,.3,2.8,1c.8.6,1.2,1.6,1.2,2.8s-.2,1.5-.5,2.2-1.3,1.8-2.7,3.2c-1.4,1.5-2.6,2.5-3.4,3.3h6.5l-.6,2.3h-.5c0-.1,0-.2,0-.4,0,0,0-.2,0-.3,0-.2,0-.3-.1-.4,0,0-.3,0-.7,0h-6.1Z"/>
      <path d="M589.2,388h-.5l.3-6.4h5.3c-.3.7-.5,1.1-.6,1.2-.1.1-.4.2-.7.2h-3.6l-.2,4.2c.7-.9,1.5-1.3,2.5-1.3s2,.4,2.7,1.3,1.1,1.9,1.1,3.2-.4,2.7-1.3,3.6c-.8,1-2,1.4-3.6,1.4s-1.9-.2-2.5-.7c-.6-.5-.9-.9-.9-1.4s0-.3.2-.5.3-.2.5-.2.4,0,.5.2c.1.1.2.4.4.8.3.9.9,1.3,1.8,1.3s1.6-.4,2.2-1.1.9-1.9.9-3.4-.2-2.4-.7-3-1.1-.9-1.7-.9-1.7.5-2.2,1.5h0Z"/>
      <path d="M752.8,387.6c.2,0,.4,0,.6,0,1,0,1.8.3,2.4,1,.6.7.9,1.5.9,2.6s-.4,2.3-1.3,3.1-2,1.2-3.3,1.2-1.7-.2-2.3-.6-1-.9-1-1.3,0-.4.2-.5.3-.2.5-.2c.4,0,.6.2.8.7.2.6.5,1,.8,1.2.3.2.7.3,1,.3.9,0,1.6-.3,2.1-.9s.8-1.6.8-2.9-.2-1.9-.6-2.4c-.4-.5-.9-.8-1.4-.8s-1,.3-1.6.9c0,.1-.2.1-.3.1-.2,0-.3-.1-.3-.3s0-.2.2-.3c.1-.1.4-.3.9-.7,1.1-.7,1.8-1.3,2.1-1.8s.5-1.1.5-1.8-.2-1.2-.5-1.6-.8-.6-1.5-.6-1.2.2-1.6.6c-.5.4-.7.9-.7,1.5s.2.9.6,1.4,0,0,0,.1c0,0-.1.2-.3.3s-.4.1-.5.1c-.2,0-.4-.2-.6-.5s-.3-.7-.3-1c0-.8.3-1.5,1-2.1s1.5-.9,2.6-.9,2,.3,2.6.8c.6.5.9,1.1.9,1.7s-.2,1.1-.6,1.6-1.1,1-2,1.7l-.8.6h0Z"/>
      <path d="M758.5,388.3c0-2.1.4-3.9,1.2-5.1.8-1.3,1.9-1.9,3.2-1.9s2.4.6,3.2,1.9c.8,1.3,1.2,3,1.2,5.1s-.4,3.8-1.2,5.1-1.9,1.9-3.2,1.9-2.4-.6-3.2-1.9c-.8-1.3-1.2-3-1.2-5.1h0ZM760.2,388.3c0,2.8.2,4.6.7,5.4.5.8,1.1,1.1,2,1.1s1.7-.5,2.1-1.4c.4-.9.6-2.6.6-5.2s-.2-4.6-.7-5.4c-.5-.8-1.1-1.1-2-1.1s-1.5.4-2,1.1-.7,2.6-.7,5.4h0Z"/>
    </g>
    <g>
      <path d="M13.6,50.1l.9-2.8h.4c0,.1,0,.2.2.3.1,0,.4,0,.8,0h5.3l-3.7,11.2c-.4,1.2-.7,2-.9,2.2-.2.2-.4.3-.6.3-.4,0-.6-.2-.6-.6s.2-.8.6-1.6c.1-.2.2-.4.3-.6l4.1-9.6h-4.4c-.6,0-.9,0-1.1,0s-.2,0-.3.2-.2.4-.4.9h-.5,0Z"/>
      <path d="M23.8,61.1v-.6c.8-.6,1.8-1.6,3-2.9s2.1-2.4,2.6-3.4.8-1.9.8-2.9-.3-2-.8-2.6-1.2-.8-2-.8-1.4.2-1.8.8-.6,1.1-.6,1.6.3,1.2.8,1.6c.2.1.3.2.3.3,0,.1-.1.3-.4.5s-.4.3-.6.3-.4-.2-.7-.6c-.3-.4-.4-.9-.4-1.6,0-1.1.4-1.9,1.2-2.5.8-.6,1.7-.9,2.7-.9s1.9.3,2.8.9c.8.6,1.2,1.6,1.2,2.8s-.2,1.5-.6,2.2c-.4.7-1.3,1.8-2.7,3.2-1.4,1.4-2.6,2.5-3.4,3.3h6.5l-.6,2.3h-.5c0-.1,0-.2,0-.4,0,0,0-.2,0-.3,0-.2,0-.3-.1-.4,0,0-.3,0-.7,0h-6.1Z"/>
      <path d="M34.1,54.4c0-2.1.4-3.8,1.2-5.1.8-1.3,1.9-1.9,3.2-1.9s2.4.6,3.2,1.9,1.2,3,1.2,5.1-.4,3.8-1.2,5.1-1.9,1.9-3.2,1.9-2.4-.6-3.2-1.9-1.2-3-1.2-5.1h0ZM35.8,54.4c0,2.8.2,4.6.7,5.4s1.1,1.2,2,1.2,1.7-.5,2.1-1.4c.4-.9.6-2.7.6-5.2s-.2-4.7-.7-5.4c-.5-.8-1.1-1.2-2-1.2s-1.5.4-2,1.1-.7,2.6-.7,5.4h0Z"/>
      <path d="M13.6,103.1l.9-2.8h.4c0,.1,0,.2.2.3.1,0,.4,0,.8,0h5.3l-3.7,11.2c-.4,1.2-.7,2-.9,2.2-.2.2-.4.4-.6.4-.4,0-.6-.2-.6-.6s.2-.8.6-1.6c.1-.2.2-.4.3-.6l4.1-9.6h-4.4c-.6,0-.9,0-1.1,0s-.2.1-.3.2-.2.4-.4.9h-.5,0Z"/>
      <path d="M23.5,107.4c0-2.1.4-3.9,1.2-5.1.8-1.3,1.9-1.9,3.2-1.9s2.4.6,3.2,1.9,1.2,3,1.2,5.1-.4,3.8-1.2,5.1-1.9,1.9-3.2,1.9-2.4-.6-3.2-1.9-1.2-3-1.2-5.1h0ZM25.2,107.4c0,2.8.2,4.6.7,5.4s1.1,1.1,2,1.1,1.7-.5,2.1-1.4c.4-.9.6-2.6.6-5.2s-.2-4.6-.7-5.4c-.5-.8-1.1-1.1-2-1.1s-1.5.4-2,1.1-.7,2.6-.7,5.4h0Z"/>
      <path d="M34.1,107.4c0-2.1.4-3.9,1.2-5.1.8-1.3,1.9-1.9,3.2-1.9s2.4.6,3.2,1.9,1.2,3,1.2,5.1-.4,3.8-1.2,5.1-1.9,1.9-3.2,1.9-2.4-.6-3.2-1.9-1.2-3-1.2-5.1h0ZM35.8,107.4c0,2.8.2,4.6.7,5.4s1.1,1.1,2,1.1,1.7-.5,2.1-1.4c.4-.9.6-2.6.6-5.2s-.2-4.6-.7-5.4c-.5-.8-1.1-1.1-2-1.1s-1.5.4-2,1.1-.7,2.6-.7,5.4h0Z"/>
      <path d="M14.8,160.1c.4-.5.9-.9,1.3-1.1s1-.4,1.5-.4c1.1,0,2.1.4,2.9,1.2s1.2,1.9,1.2,3.1-.4,2.2-1.2,3.1-1.8,1.3-3,1.3-1.9-.3-2.6-1-1.2-1.5-1.5-2.4c-.3-1-.4-2-.4-3,0-2.2.5-4,1.4-5.5s2.2-2.2,3.8-2.2,1.4.2,2,.5.9.7.9,1.1-.2.6-.6.6-.6-.2-.8-.6c-.2-.4-.4-.7-.7-.8-.2-.2-.6-.2-1.1-.2-1.1,0-1.9.5-2.4,1.4s-.8,2.4-.8,4.3,0,.4,0,.6h0ZM14.7,162.8c0,.7,0,1.3.3,2s.5,1.2.9,1.5.9.6,1.5.6c.9,0,1.5-.3,1.9-1s.6-1.7.6-3.1,0-1.5-.2-2c-.2-.5-.4-.9-.9-1.2s-.9-.5-1.4-.5-1.3.3-1.9.8c-.5.5-.8,1.5-.8,2.9h0Z"/>
      <path d="M28.7,160.1c.9,0,1.7.4,2.4,1.1.7.6,1,1.5,1,2.5s-.4,2.1-1.3,2.8-1.9,1-3.1,1-2.3-.4-3.1-1.1c-.8-.7-1.2-1.6-1.2-2.6s.3-1.7.9-2.4,1.4-1.1,2.4-1.3c-.8-.2-1.5-.6-2.1-1.2s-.8-1.3-.8-2.1.4-1.8,1.1-2.5,1.6-.9,2.8-.9,1.9.3,2.7.9c.8.6,1.2,1.4,1.2,2.5s-.2,1.5-.8,2.1-1.2,1-2.2,1.2h0ZM25.2,163.6c0,.8,0,1.4.2,1.8.1.4.4.8.8,1.1s.9.4,1.5.4,1.4-.2,1.9-.7.8-1.3.8-2.6-.2-2.2-.8-2.7-1.2-.7-1.9-.7-1.5.3-1.9.9-.6,1.4-.6,2.4h0ZM25.6,156.5c0,1.1.2,1.9.5,2.5s.9.8,1.6.8,1.4-.3,1.8-.8.6-1.3.6-2.4-.2-1.7-.6-2.2-1-.8-1.7-.8-1.2.2-1.6.7c-.4.5-.6,1.1-.6,2.1h0Z"/>
      <path d="M34.1,160.4c0-2.1.4-3.9,1.2-5.1.8-1.3,1.9-1.9,3.2-1.9s2.4.6,3.2,1.9,1.2,3,1.2,5.1-.4,3.8-1.2,5.1-1.9,1.9-3.2,1.9-2.4-.6-3.2-1.9-1.2-3-1.2-5.1h0ZM35.8,160.4c0,2.8.2,4.6.7,5.4s1.1,1.1,2,1.1,1.7-.5,2.1-1.4c.4-.9.6-2.6.6-5.2s-.2-4.6-.7-5.4c-.5-.8-1.1-1.1-2-1.1s-1.5.4-2,1.1-.7,2.6-.7,5.4h0Z"/>
      <path d="M14.8,213.1c.4-.5.9-.9,1.3-1.1s1-.4,1.5-.4c1.1,0,2.1.4,2.9,1.2s1.2,1.9,1.2,3.1-.4,2.2-1.2,3.1-1.8,1.3-3,1.3-1.9-.3-2.6-1-1.2-1.5-1.5-2.4c-.3-1-.4-2-.4-3,0-2.2.5-4,1.4-5.5s2.2-2.2,3.8-2.2,1.4.2,2,.5.9.7.9,1.1-.2.6-.6.6-.6-.2-.8-.6c-.2-.4-.4-.7-.7-.8-.2-.2-.6-.2-1.1-.2-1.1,0-1.9.5-2.4,1.4s-.8,2.4-.8,4.3,0,.4,0,.5h0ZM14.7,215.8c0,.7,0,1.3.3,2s.5,1.2.9,1.5.9.6,1.5.6c.9,0,1.5-.3,1.9-1s.6-1.7.6-3.1,0-1.5-.2-2c-.2-.5-.4-.9-.9-1.2s-.9-.5-1.4-.5-1.3.3-1.9.8c-.5.5-.8,1.5-.8,2.9h0Z"/>
      <path d="M25.4,213.1c.4-.5.9-.9,1.3-1.1s1-.4,1.5-.4c1.1,0,2.1.4,2.9,1.2s1.2,1.9,1.2,3.1-.4,2.2-1.2,3.1-1.8,1.3-3,1.3-1.9-.3-2.6-1-1.2-1.5-1.5-2.4c-.3-1-.4-2-.4-3,0-2.2.5-4,1.4-5.5s2.2-2.2,3.8-2.2,1.4.2,2,.5.9.7.9,1.1-.2.6-.6.6-.6-.2-.8-.6c-.2-.4-.4-.7-.7-.8-.2-.2-.6-.2-1.1-.2-1.1,0-1.9.5-2.4,1.4s-.8,2.4-.8,4.3,0,.4,0,.5h0ZM25.3,215.8c0,.7,0,1.3.3,2s.5,1.2.9,1.5.9.6,1.5.6c.9,0,1.5-.3,1.9-1s.6-1.7.6-3.1,0-1.5-.2-2c-.2-.5-.4-.9-.9-1.2s-.9-.5-1.4-.5-1.3.3-1.9.8c-.5.5-.8,1.5-.8,2.9h0Z"/>
      <path d="M34.1,213.3c0-2.1.4-3.9,1.2-5.1.8-1.3,1.9-1.9,3.2-1.9s2.4.6,3.2,1.9c.8,1.3,1.2,3,1.2,5.1s-.4,3.8-1.2,5.1-1.9,1.9-3.2,1.9-2.4-.6-3.2-1.9c-.8-1.3-1.2-3-1.2-5.1h0ZM35.8,213.3c0,2.8.2,4.6.7,5.4s1.1,1.1,2,1.1,1.7-.5,2.1-1.4c.4-.9.6-2.6.6-5.2s-.2-4.6-.7-5.4c-.5-.8-1.1-1.1-2-1.1s-1.5.4-2,1.1-.7,2.6-.7,5.4h0Z"/>
      <path d="M14.8,266.1c.4-.5.9-.9,1.3-1.1s1-.4,1.5-.4c1.1,0,2.1.4,2.9,1.2s1.2,1.9,1.2,3.1-.4,2.2-1.2,3.1-1.8,1.3-3,1.3-1.9-.3-2.6-1-1.2-1.5-1.5-2.4c-.3-1-.4-2-.4-3,0-2.2.5-4,1.4-5.5s2.2-2.2,3.8-2.2,1.4.2,2,.5.9.7.9,1.1-.2.6-.6.6-.6-.2-.8-.6c-.2-.4-.4-.7-.7-.8-.2-.2-.6-.2-1.1-.2-1.1,0-1.9.5-2.4,1.4s-.8,2.4-.8,4.3,0,.4,0,.5h0ZM14.7,268.8c0,.7,0,1.3.3,2s.5,1.2.9,1.5.9.6,1.5.6c.9,0,1.5-.3,1.9-1s.6-1.7.6-3.1,0-1.5-.2-2c-.2-.5-.4-.9-.9-1.2s-.9-.5-1.4-.5-1.3.3-1.9.8c-.5.5-.8,1.5-.8,2.9h0Z"/>
      <path d="M28.3,268.4h-5v-.6l5.9-8.5h.7v8.5h.9c.6,0,.9,0,1-.1s.3-.4.4-.9h.4l-.2,1.6h-2.6v1.7c0,1,0,1.6,0,1.8s.1.4.3.5.5.1,1,.1v.5h-4.5v-.5h.4c.4,0,.7,0,.9-.2.2-.1.3-.3.3-.5s0-.8,0-1.8v-1.7h0ZM28.3,267.8v-6.5l-4.5,6.5h4.5Z"/>
      <path d="M34.1,266.3c0-2.1.4-3.9,1.2-5.1.8-1.3,1.9-1.9,3.2-1.9s2.4.6,3.2,1.9c.8,1.3,1.2,3,1.2,5.1s-.4,3.8-1.2,5.1-1.9,1.9-3.2,1.9-2.4-.6-3.2-1.9c-.8-1.3-1.2-3-1.2-5.1h0ZM35.8,266.3c0,2.8.2,4.6.7,5.4s1.1,1.1,2,1.1,1.7-.5,2.1-1.4c.4-.9.6-2.6.6-5.2s-.2-4.6-.7-5.4c-.5-.8-1.1-1.1-2-1.1s-1.5.4-2,1.1-.7,2.6-.7,5.4h0Z"/>
      <path d="M14.8,319.1c.4-.5.9-.9,1.3-1.1s1-.4,1.5-.4c1.1,0,2.1.4,2.9,1.2s1.2,1.9,1.2,3.1-.4,2.2-1.2,3.1-1.8,1.3-3,1.3-1.9-.3-2.6-1-1.2-1.5-1.5-2.4c-.3-1-.4-2-.4-3,0-2.2.5-4,1.4-5.5s2.2-2.2,3.8-2.2,1.4.2,2,.5.9.7.9,1.1-.2.6-.6.6-.6-.2-.8-.6c-.2-.4-.4-.7-.7-.8-.2-.2-.6-.2-1.1-.2-1.1,0-1.9.5-2.4,1.4s-.8,2.4-.8,4.3,0,.4,0,.5h0ZM14.7,321.8c0,.7,0,1.3.3,2s.5,1.2.9,1.5.9.6,1.5.6c.9,0,1.5-.3,1.9-1s.6-1.7.6-3.1,0-1.5-.2-2c-.2-.5-.4-.9-.9-1.2s-.9-.5-1.4-.5-1.3.3-1.9.8c-.5.5-.8,1.5-.8,2.9h0Z"/>
      <path d="M23.8,326.1v-.6c.8-.6,1.8-1.6,3-2.9s2.1-2.5,2.6-3.4.8-1.9.8-2.9-.3-2-.8-2.6-1.2-.8-2-.8-1.4.2-1.8.8-.6,1-.6,1.6.3,1.2.8,1.6c.2.1.3.2.3.3,0,.1-.1.3-.4.5s-.4.3-.6.3-.4-.2-.7-.6c-.3-.4-.4-.9-.4-1.6,0-1,.4-1.9,1.2-2.5.8-.6,1.7-.9,2.7-.9s1.9.3,2.8,1c.8.6,1.2,1.6,1.2,2.8s-.2,1.5-.6,2.2c-.4.7-1.3,1.8-2.7,3.2-1.4,1.5-2.6,2.5-3.4,3.3h6.5l-.6,2.3h-.5c0-.1,0-.2,0-.4,0,0,0-.2,0-.3,0-.2,0-.3-.1-.4,0,0-.3,0-.7,0h-6.1Z"/>
      <path d="M34.1,319.3c0-2.1.4-3.9,1.2-5.1.8-1.3,1.9-1.9,3.2-1.9s2.4.6,3.2,1.9c.8,1.3,1.2,3,1.2,5.1s-.4,3.8-1.2,5.1-1.9,1.9-3.2,1.9-2.4-.6-3.2-1.9c-.8-1.3-1.2-3-1.2-5.1h0ZM35.8,319.3c0,2.8.2,4.6.7,5.4s1.1,1.1,2,1.1,1.7-.5,2.1-1.4c.4-.9.6-2.6.6-5.2s-.2-4.6-.7-5.4c-.5-.8-1.1-1.1-2-1.1s-1.5.4-2,1.1-.7,2.6-.7,5.4h0Z"/>
      <path d="M14.8,372.1c.4-.5.9-.9,1.3-1.1s1-.4,1.5-.4c1.1,0,2.1.4,2.9,1.2s1.2,1.9,1.2,3.1-.4,2.2-1.2,3.1-1.8,1.3-3,1.3-1.9-.3-2.6-1-1.2-1.5-1.5-2.4c-.3-1-.4-2-.4-3,0-2.2.5-4,1.4-5.5s2.2-2.2,3.8-2.2,1.4.2,2,.5.9.7.9,1.1-.2.6-.6.6-.6-.2-.8-.6c-.2-.4-.4-.7-.7-.8-.2-.2-.6-.2-1.1-.2-1.1,0-1.9.5-2.4,1.4s-.8,2.4-.8,4.3,0,.4,0,.5h0ZM14.7,374.8c0,.7,0,1.3.3,2s.5,1.2.9,1.5.9.6,1.5.6c.9,0,1.5-.3,1.9-1s.6-1.7.6-3.1,0-1.5-.2-2c-.2-.5-.4-.9-.9-1.2s-.9-.5-1.4-.5-1.3.3-1.9.8c-.5.5-.8,1.5-.8,2.9h0Z"/>
      <path d="M23.5,372.3c0-2.1.4-3.9,1.2-5.1.8-1.3,1.9-1.9,3.2-1.9s2.4.6,3.2,1.9c.8,1.3,1.2,3,1.2,5.1s-.4,3.8-1.2,5.1-1.9,1.9-3.2,1.9-2.4-.6-3.2-1.9c-.8-1.3-1.2-3-1.2-5.1h0ZM25.2,372.3c0,2.8.2,4.6.7,5.4s1.1,1.1,2,1.1,1.7-.5,2.1-1.4c.4-.9.6-2.6.6-5.2s-.2-4.6-.7-5.4c-.5-.8-1.1-1.1-2-1.1s-1.5.4-2,1.1-.7,2.6-.7,5.4h0Z"/>
      <path d="M34.1,372.3c0-2.1.4-3.9,1.2-5.1.8-1.3,1.9-1.9,3.2-1.9s2.4.6,3.2,1.9c.8,1.3,1.2,3,1.2,5.1s-.4,3.8-1.2,5.1-1.9,1.9-3.2,1.9-2.4-.6-3.2-1.9c-.8-1.3-1.2-3-1.2-5.1h0ZM35.8,372.3c0,2.8.2,4.6.7,5.4s1.1,1.1,2,1.1,1.7-.5,2.1-1.4c.4-.9.6-2.6.6-5.2s-.2-4.6-.7-5.4c-.5-.8-1.1-1.1-2-1.1s-1.5.4-2,1.1-.7,2.6-.7,5.4h0Z"/>
    </g>
  </g>
  <g id="legend_copy">
    <g>
      <path d="M117.6,90.6c.2,0,.4,0,.6,0s.5,0,.7,0c.2,0,.5,0,.7,0s.5,0,.7,0c.9,0,1.6.1,2.2.4s1.1.7,1.5,1.3.7,1.2.8,2c.2.8.2,1.6.2,2.6s0,1.7-.2,2.5-.4,1.5-.8,2.1c-.4.6-.9,1.1-1.5,1.4-.6.4-1.4.5-2.4.5h-.6c-.2,0-.5,0-.8,0-.3,0-.5,0-.7,0-.2,0-.4,0-.5,0v-12.6h0ZM120.4,91.7h-.4c-.1,0-.3,0-.4,0-.1,0-.2,0-.4,0-.1,0-.2,0-.3,0v10.3s.1,0,.3,0c.1,0,.3,0,.4,0,.1,0,.3,0,.4,0s.2,0,.3,0c.7,0,1.2-.1,1.7-.4.4-.3.8-.7,1-1.2.3-.5.4-1.1.5-1.7s.2-1.3.2-2,0-1.3-.1-1.9c-.1-.6-.3-1.1-.5-1.6-.2-.5-.6-.9-1-1.1-.4-.3-1-.4-1.6-.4h0Z"/>
      <path d="M127.1,91.5c0-.3,0-.5.2-.7s.4-.3.6-.3.5,0,.7.3c.2.2.3.4.3.7s0,.5-.3.7-.4.2-.7.2-.5,0-.6-.2-.2-.4-.2-.7h0ZM127.3,94.2h1.3v9h-1.3v-9Z"/>
      <path d="M130.9,101.7c.2.1.5.3.9.4s.7.1,1,.1.7-.1,1-.3.4-.5.4-1,0-.7-.2-.9-.4-.5-.6-.6c-.3-.2-.5-.4-.8-.5s-.6-.4-.8-.6c-.3-.2-.5-.5-.6-.8s-.2-.7-.2-1.2c0-.8.2-1.3.6-1.7s1-.6,1.8-.6.9,0,1.3.1c.4,0,.7.2.9.4l-.3,1.1c-.2-.1-.5-.2-.8-.3-.3,0-.6-.1-.9-.1s-.8,0-.9.3c-.2.2-.3.5-.3.9s0,.6.2.8.4.4.6.6c.3.2.5.4.8.5s.6.4.8.6.5.5.6.9c.2.3.2.8.2,1.3s0,.6-.2.9c-.1.3-.3.6-.5.8s-.5.4-.8.5-.7.2-1.2.2-1,0-1.4-.1c-.4-.1-.7-.2-1-.4l.4-1.1h0Z"/>
      <path d="M136.4,94.2h1.1v-1.8l1.3-.4v2.2h1.9v1.2h-1.9v5.4c0,.5,0,.9.2,1.1s.3.4.6.4.5,0,.6,0c.2,0,.4-.1.6-.2l.2,1c-.3.1-.6.2-.9.3-.3,0-.6.1-1,.1-.6,0-1-.2-1.3-.6s-.4-1-.4-1.9v-5.5h-1.1v-1.2h0Z"/>
      <path d="M142.3,94.2h.9l.2.9h0c.2-.4.4-.6.7-.8.3-.2.6-.3,1-.3s.6,0,.9.2l-.2,1.3c-.3-.1-.6-.2-.8-.2-.4,0-.7.1-.9.3s-.4.5-.5.9v6.6h-1.3v-9h0Z"/>
      <path d="M147.3,91.5c0-.3,0-.5.2-.7s.4-.3.6-.3.5,0,.7.3c.2.2.3.4.3.7s0,.5-.3.7-.4.2-.7.2-.5,0-.6-.2-.2-.4-.2-.7h0ZM147.5,94.2h1.3v9h-1.3v-9Z"/>
      <path d="M151.3,90.6h1.3v4.3h0c.5-.6,1.1-.9,2-.9s1.6.4,2.1,1.1c.5.7.7,1.9.7,3.5s-.3,2.8-.9,3.6-1.5,1.2-2.6,1.2-1.1,0-1.5-.2-.8-.3-1-.4v-12.1h0ZM152.6,101.9c.2.1.4.2.6.2.2,0,.5,0,.8,0,.6,0,1.1-.3,1.5-.9.4-.6.5-1.5.5-2.8s0-1-.1-1.4-.2-.8-.3-1.1c-.1-.3-.3-.5-.5-.7s-.5-.2-.8-.2-.8.1-1.1.4-.5.6-.6,1.1v5.3h0Z"/>
      <path d="M160.4,94.2v5.5c0,.9,0,1.6.3,1.9s.5.6,1,.6.5,0,.7-.1.4-.2.5-.4c.2-.2.3-.4.4-.6s.2-.4.3-.7v-6.2h1.3v6.4c0,.4,0,.9,0,1.3s0,.9.1,1.2h-.9l-.3-1.3h0c-.2.4-.5.7-.9,1s-.9.4-1.4.4-.7,0-1-.1c-.3-.1-.5-.3-.7-.5s-.4-.6-.5-1-.1-1-.1-1.7v-5.8h1.3,0Z"/>
      <path d="M166.2,94.2h1.1v-1.8l1.3-.4v2.2h1.9v1.2h-1.9v5.4c0,.5,0,.9.2,1.1s.3.4.6.4.5,0,.6,0c.2,0,.4-.1.6-.2l.2,1c-.3.1-.6.2-.9.3-.3,0-.6.1-1,.1-.6,0-1-.2-1.3-.6s-.4-1-.4-1.9v-5.5h-1.1v-1.2h0Z"/>
      <path d="M172.1,91.5c0-.3,0-.5.2-.7s.4-.3.6-.3.5,0,.7.3c.2.2.3.4.3.7s0,.5-.3.7-.4.2-.7.2-.5,0-.6-.2-.2-.4-.2-.7h0ZM172.4,94.2h1.3v9h-1.3v-9Z"/>
      <path d="M175.8,98.7c0-1.6.3-2.8.8-3.6.6-.8,1.4-1.1,2.4-1.1s1.9.4,2.4,1.2.8,2,.8,3.6-.3,2.8-.9,3.6c-.6.8-1.4,1.1-2.4,1.1s-1.9-.4-2.4-1.2-.8-2-.8-3.6ZM177.1,98.7c0,.5,0,1,.1,1.4,0,.4.2.8.3,1.1.1.3.3.6.6.7s.5.3.9.3c.6,0,1.1-.3,1.4-.8s.5-1.5.5-2.7,0-1-.1-1.4c0-.4-.2-.8-.3-1.1s-.4-.6-.6-.7c-.2-.2-.5-.3-.9-.3-.6,0-1.1.3-1.4.9-.3.6-.5,1.5-.5,2.7h0Z"/>
      <path d="M188.6,103.2v-5.5c0-.9-.1-1.6-.3-1.9s-.6-.6-1.1-.6-.9.1-1.2.4-.5.6-.7,1.1v6.6h-1.3v-9h.9l.2.9h0c.2-.3.5-.6.9-.8s.9-.3,1.4-.3.7,0,1,.2c.3.1.5.3.7.6.2.3.4.6.5,1s.1,1,.1,1.6v5.8h-1.3Z"/>
      <path d="M195.5,98.7c0-1.6.3-2.8.8-3.6.6-.8,1.4-1.1,2.4-1.1s1.9.4,2.4,1.2.8,2,.8,3.6-.3,2.8-.9,3.6c-.6.8-1.4,1.1-2.4,1.1s-1.9-.4-2.4-1.2-.8-2-.8-3.6ZM196.9,98.7c0,.5,0,1,.1,1.4,0,.4.2.8.3,1.1.1.3.3.6.6.7s.5.3.9.3c.6,0,1.1-.3,1.4-.8s.5-1.5.5-2.7,0-1-.1-1.4c0-.4-.2-.8-.3-1.1s-.4-.6-.6-.7c-.2-.2-.5-.3-.9-.3-.6,0-1.1.3-1.4.9-.3.6-.5,1.5-.5,2.7h0Z"/>
      <path d="M202.8,94.2h1.1v-.5c0-1.1.2-1.9.5-2.4.3-.5.9-.8,1.7-.8s.6,0,.9,0c.2,0,.5.1.8.2l-.3,1.1c-.2-.1-.4-.2-.6-.2-.2,0-.4,0-.5,0s-.4,0-.6.1c-.1.1-.2.2-.3.4s-.1.5-.1.8c0,.3,0,.7,0,1.2h1.9v1.2h-1.9v7.8h-1.3v-7.8h-1.1v-1.2h0Z"/>
      <path d="M212.2,97.3h-.4c0-1,.3-1.7.6-2.1.4-.4.7-.7,1.1-.7s.9.3,1.2.9c.3.6.5,1.6.5,2.8s-.2,3.1-.6,4.5c.7-.7,1.3-1.7,2-2.8s1-2.1,1-2.9-.1-.8-.3-1.1c-.2-.4-.3-.6-.3-.8s0-.3.2-.5c.1-.1.2-.2.4-.2.2,0,.5.1.6.4s.2.7.2,1.2c0,.8-.2,1.8-.8,3s-1.2,2.4-2.2,3.5c-1,1.2-1.9,2.2-2.9,3.1-1,.9-1.8,1.6-2.5,1.9s-1.4.6-2,.6-1.3-.2-1.3-.8,0-.4.3-.5.4-.2.6-.2.4,0,.7.1c.4.1.8.2,1.1.2.4,0,.8-.1,1.2-.3s.9-.6,1.5-1.2c.6-.6,1-1.1,1.2-1.5s.4-1.2.6-2.3.3-2.3.3-3.5,0-1.7-.3-2.2-.4-.8-.7-.8c-.5,0-.8.6-.9,1.9h0Z"/>
      <path d="M228.7,94.2l1.6,5.3.3,1.7h0l.3-1.8,1.2-5.2h1.2l-2.4,9.2h-.7l-1.8-5.9-.2-1.5h0l-.2,1.5-1.8,5.9h-.7l-2.5-9.2h1.4l1.4,5.2.2,1.8h0l.3-1.8,1.5-5.2h1Z"/>
      <path d="M239.2,103.2v-5.5c0-.8-.1-1.5-.3-1.9-.2-.4-.6-.7-1.2-.7s-.8.1-1.1.4c-.3.3-.6.7-.7,1.1v6.5h-1.3v-12.6h1.3v4.4h0c.2-.3.5-.6.9-.8s.8-.3,1.3-.3.7,0,1,.2c.3.1.5.3.7.6.2.3.3.6.4,1.1s.1,1,.1,1.6v5.8h-1.3,0Z"/>
      <path d="M248,102.6c-.3.3-.6.5-1.1.6-.4.1-.9.2-1.4.2s-1-.1-1.5-.3c-.4-.2-.8-.5-1-.9s-.5-.9-.6-1.5c-.1-.6-.2-1.2-.2-1.9,0-1.5.3-2.7.9-3.5.6-.8,1.4-1.2,2.4-1.2s.7,0,1,.1.6.2.9.5.5.6.6,1.1.2,1.1.2,1.8,0,.4,0,.7,0,.5,0,.7h-4.6c0,.5,0,1,.1,1.4,0,.4.2.8.4,1.1.2.3.4.5.7.7.3.2.6.2,1,.2s.6,0,1-.2c.3-.1.6-.3.7-.4l.5.9h0ZM247,97.8c0-.9-.1-1.6-.4-2s-.6-.6-1.1-.6-1,.2-1.3.6-.5,1.1-.6,2h3.4Z"/>
      <path d="M254.7,103.2v-5.5c0-.9-.1-1.6-.3-1.9s-.6-.6-1.1-.6-.9.1-1.2.4-.5.6-.7,1.1v6.6h-1.3v-9h.9l.2.9h0c.2-.3.5-.6.9-.8s.9-.3,1.4-.3.7,0,1,.2c.3.1.5.3.7.6.2.3.4.6.5,1s.1,1,.1,1.6v5.8h-1.3Z"/>
      <path d="M262.8,97.1h-.4c.2-.6.5-1.2.9-1.7s.7-.8,1.1-.8.4.1.5.3.3.7.5,1.3l.4,1.7,1.6-2c.7-.9,1.2-1.3,1.5-1.3s.5.2.5.6c0,.5-.1,1.1-.4,1.8h-.4c.2-.7.4-1.2.4-1.5s0-.2-.2-.2-.5.3-.9.9l-1.9,2.4.6,2.5c.2.7.3,1.1.4,1.3,0,.2.2.3.3.3s.2-.1.4-.4c.2-.3.3-.7.5-1.2h.5c-.5,1.7-1.1,2.6-1.9,2.6s-.5-.1-.7-.4c-.2-.3-.4-.9-.6-1.7l-.4-1.7-1.9,2.4c-.5.7-.9,1.1-1.1,1.2-.2.1-.4.2-.5.2-.3,0-.5-.2-.5-.6s.2-1,.5-1.7h.4c-.3.7-.5,1.2-.5,1.5s0,.3.2.3c.2,0,.6-.4,1.2-1.3l1.9-2.6-.5-2.2c-.2-.9-.4-1.3-.5-1.3-.2,0-.5.5-1,1.5h0Z"/>
      <path d="M274.1,95h6.2v1.2h-6.2v-1.2ZM274.1,98h6.2v1.2h-6.2v-1.2Z"/>
      <path d="M286.7,102h2v-8.8l.2-1.1-.6.9-1.5,1.2-.7-.8,3.3-3.1h.7v11.6h2v1.2h-5.3v-1.2h0Z"/>
      <path d="M299.6,90.6v1.2h-3.4v3.7h.6c1,0,1.7.3,2.3.9.5.6.8,1.6.9,2.8,0,.7-.1,1.3-.3,1.8-.2.5-.4.9-.8,1.3-.3.4-.7.6-1.1.8-.4.2-.9.3-1.4.3-.8,0-1.5-.1-2-.3l.3-1.1c.2.1.5.2.7.2.3,0,.6,0,.9,0,.7,0,1.2-.2,1.7-.8.4-.5.6-1.2.7-2.1,0-.9-.2-1.6-.7-2.1-.4-.4-1-.7-1.8-.7h-1.2c0,0,0-6.1,0-6.1h4.6Z"/>
    </g>
    <g>
      <path d="M331.3,109.6c.2,0,.4,0,.6,0s.5,0,.7,0c.2,0,.5,0,.7,0s.5,0,.7,0c.9,0,1.6.1,2.2.4s1.1.7,1.5,1.3.7,1.2.8,2c.2.8.2,1.6.2,2.6s0,1.7-.2,2.5-.4,1.5-.8,2.1c-.4.6-.9,1.1-1.5,1.4-.6.4-1.4.5-2.4.5h-.6c-.2,0-.5,0-.8,0-.3,0-.5,0-.7,0-.2,0-.4,0-.5,0v-12.6h0ZM334.1,110.7h-.4c-.1,0-.3,0-.4,0-.1,0-.2,0-.4,0-.1,0-.2,0-.3,0v10.3s.1,0,.3,0c.1,0,.3,0,.4,0,.1,0,.3,0,.4,0s.2,0,.3,0c.7,0,1.2-.1,1.7-.4.4-.3.8-.7,1-1.2.3-.5.4-1.1.5-1.7s.2-1.3.2-2,0-1.3-.1-1.9c-.1-.6-.3-1.1-.5-1.6-.2-.5-.6-.9-1-1.1-.4-.3-1-.4-1.6-.4h0Z"/>
      <path d="M340.8,110.4c0-.3,0-.5.2-.7s.4-.3.6-.3.5,0,.7.3c.2.2.3.4.3.7s0,.5-.3.7-.4.2-.7.2-.5,0-.6-.2-.2-.4-.2-.7h0ZM341,113.2h1.3v9h-1.3v-9Z"/>
      <path d="M344.6,120.7c.2.1.5.3.9.4s.7.1,1,.1.7-.1,1-.3.4-.5.4-1,0-.7-.2-.9-.4-.5-.6-.6c-.3-.2-.5-.4-.8-.5s-.6-.4-.8-.6c-.3-.2-.5-.5-.6-.8s-.2-.7-.2-1.2c0-.8.2-1.3.6-1.7s1-.6,1.8-.6.9,0,1.3.1c.4,0,.7.2.9.4l-.3,1.1c-.2-.1-.5-.2-.8-.3-.3,0-.6-.1-.9-.1s-.8,0-.9.3c-.2.2-.3.5-.3.9s0,.6.2.8.4.4.6.6c.3.2.5.4.8.5s.6.4.8.6.5.5.6.9c.2.3.2.8.2,1.3s0,.6-.2.9c-.1.3-.3.6-.5.8s-.5.4-.8.5-.7.2-1.2.2-1,0-1.4-.1c-.4-.1-.7-.2-1-.4l.4-1.1h0Z"/>
      <path d="M350,113.2h1.1v-1.8l1.3-.4v2.2h1.9v1.2h-1.9v5.4c0,.5,0,.9.2,1.1s.3.4.6.4.5,0,.6,0c.2,0,.4-.1.6-.2l.2,1c-.3.1-.6.2-.9.3-.3,0-.6.1-1,.1-.6,0-1-.2-1.3-.6s-.4-1-.4-1.9v-5.5h-1.1v-1.2h0Z"/>
      <path d="M356,113.2h.9l.2.9h0c.2-.4.4-.6.7-.8.3-.2.6-.3,1-.3s.6,0,.9.2l-.2,1.3c-.3-.1-.6-.2-.8-.2-.4,0-.7.1-.9.3s-.4.5-.5.9v6.6h-1.3v-9h0Z"/>
      <path d="M361,110.4c0-.3,0-.5.2-.7s.4-.3.6-.3.5,0,.7.3c.2.2.3.4.3.7s0,.5-.3.7-.4.2-.7.2-.5,0-.6-.2-.2-.4-.2-.7h0ZM361.2,113.2h1.3v9h-1.3v-9Z"/>
      <path d="M365,109.6h1.3v4.3h0c.5-.6,1.2-.9,2-.9s1.6.4,2.1,1.1c.5.7.7,1.9.7,3.5s-.3,2.8-.9,3.6-1.5,1.2-2.6,1.2-1.1,0-1.5-.2-.8-.3-1-.4v-12.1h0ZM366.3,120.8c.2.1.4.2.6.2.2,0,.5,0,.8,0,.6,0,1.1-.3,1.5-.9.4-.6.5-1.5.5-2.8s0-1,0-1.4-.2-.8-.3-1.1-.3-.5-.5-.7-.5-.2-.8-.2-.8.1-1.1.4-.5.6-.6,1.1v5.3h0Z"/>
      <path d="M374.1,113.2v5.5c0,.9,0,1.6.3,1.9s.5.6,1,.6.5,0,.7-.1c.2-.1.4-.2.5-.4.2-.2.3-.4.4-.6s.2-.4.3-.7v-6.2h1.3v6.4c0,.4,0,.9,0,1.3s0,.9.1,1.2h-.9l-.3-1.3h0c-.2.4-.5.7-.9,1s-.9.4-1.4.4-.7,0-1-.1c-.3-.1-.5-.3-.7-.5s-.4-.6-.5-1-.2-1-.2-1.7v-5.8h1.3,0Z"/>
      <path d="M379.9,113.2h1.1v-1.8l1.3-.4v2.2h1.9v1.2h-1.9v5.4c0,.5,0,.9.2,1.1s.3.4.6.4.5,0,.6,0,.4-.1.6-.2l.2,1c-.3.1-.6.2-.9.3-.3,0-.7.1-1,.1-.6,0-1-.2-1.3-.6-.3-.4-.4-1-.4-1.9v-5.5h-1.1v-1.2Z"/>
      <path d="M385.8,110.4c0-.3,0-.5.2-.7s.4-.3.6-.3.5,0,.7.3c.2.2.3.4.3.7s0,.5-.3.7-.4.2-.7.2-.5,0-.6-.2-.2-.4-.2-.7h0ZM386.1,113.2h1.3v9h-1.3v-9Z"/>
      <path d="M389.4,117.7c0-1.6.3-2.8.8-3.6.6-.8,1.3-1.1,2.4-1.1s1.9.4,2.4,1.2.8,2,.8,3.6-.3,2.8-.8,3.6c-.6.8-1.4,1.1-2.4,1.1s-1.9-.4-2.4-1.2-.8-2-.8-3.6h0ZM390.8,117.7c0,.5,0,1,0,1.4,0,.4.2.8.3,1.1.2.3.3.6.6.7s.5.3.9.3c.6,0,1.1-.3,1.4-.8s.5-1.5.5-2.7,0-1,0-1.4c0-.4-.2-.8-.3-1.1s-.3-.6-.6-.7c-.2-.2-.5-.3-.9-.3-.6,0-1.1.3-1.4.9-.3.6-.5,1.5-.5,2.7h0Z"/>
      <path d="M402.3,122.2v-5.5c0-.9,0-1.6-.3-1.9s-.6-.6-1.1-.6-.9.1-1.2.4-.5.6-.7,1.1v6.6h-1.3v-9h.9l.2.9h0c.2-.3.5-.6.9-.8s.8-.3,1.4-.3.7,0,1,.2c.3.1.5.3.7.6.2.3.3.6.5,1,0,.4.2,1,.2,1.6v5.8h-1.3Z"/>
      <path d="M409.2,117.7c0-1.6.3-2.8.8-3.6.6-.8,1.3-1.1,2.4-1.1s1.9.4,2.4,1.2.8,2,.8,3.6-.3,2.8-.8,3.6c-.6.8-1.4,1.1-2.4,1.1s-1.9-.4-2.4-1.2-.8-2-.8-3.6h0ZM410.6,117.7c0,.5,0,1,0,1.4,0,.4.2.8.3,1.1.2.3.3.6.6.7s.5.3.9.3c.6,0,1.1-.3,1.4-.8s.5-1.5.5-2.7,0-1,0-1.4c0-.4-.2-.8-.3-1.1s-.3-.6-.6-.7c-.2-.2-.5-.3-.9-.3-.6,0-1.1.3-1.4.9-.3.6-.5,1.5-.5,2.7h0Z"/>
      <path d="M416.5,113.2h1.1v-.5c0-1.1.2-1.9.5-2.4.3-.5.9-.8,1.7-.8s.6,0,.8,0c.2,0,.5.1.8.2l-.3,1.1c-.2-.1-.4-.2-.6-.2-.2,0-.4,0-.5,0s-.4,0-.6.1c-.1.1-.2.2-.3.4s-.1.5-.1.8c0,.3,0,.7,0,1.2h1.9v1.2h-1.9v7.8h-1.3v-7.8h-1.1v-1.2h0Z"/>
      <path d="M425.9,116.3h-.4c0-1,.3-1.7.6-2.1.3-.4.7-.7,1.1-.7s.9.3,1.2.9c.3.6.5,1.6.5,2.8s-.2,3.1-.6,4.5c.7-.7,1.3-1.7,2-2.8s1-2.1,1-2.9-.1-.8-.3-1.1c-.2-.4-.3-.6-.3-.8s0-.3.2-.5c.1-.1.2-.2.4-.2.2,0,.5.1.6.4s.2.7.2,1.2c0,.8-.2,1.8-.8,3s-1.2,2.4-2.2,3.5c-1,1.2-1.9,2.2-2.9,3.1-1,.9-1.8,1.6-2.5,1.9-.7.4-1.4.6-2,.6s-1.3-.2-1.3-.8,0-.4.3-.5.4-.2.6-.2.4,0,.7.1c.4.1.8.2,1.1.2.4,0,.8-.1,1.2-.3s.9-.6,1.5-1.2c.6-.6,1-1.1,1.2-1.5s.4-1.2.6-2.3.3-2.3.3-3.5,0-1.7-.3-2.2-.4-.8-.7-.8c-.5,0-.8.6-.9,1.9h0Z"/>
      <path d="M442.4,113.2l1.6,5.3.3,1.7h0l.3-1.8,1.2-5.2h1.2l-2.4,9.2h-.7l-1.8-5.9-.2-1.5h0l-.2,1.5-1.8,5.9h-.7l-2.5-9.2h1.3l1.4,5.2.2,1.8h0l.3-1.8,1.5-5.2h1Z"/>
      <path d="M452.9,122.2v-5.5c0-.8,0-1.5-.3-1.9s-.6-.7-1.2-.7-.8.1-1.1.4-.6.7-.7,1.1v6.5h-1.3v-12.6h1.3v4.4h0c.2-.3.5-.6.9-.8.3-.2.8-.3,1.3-.3s.7,0,1,.2c.3.1.5.3.7.6.2.3.3.6.4,1.1s.1,1,.1,1.6v5.8h-1.3,0Z"/>
      <path d="M461.7,121.5c-.3.3-.7.5-1.1.6-.4.1-.9.2-1.4.2s-1-.1-1.5-.3c-.4-.2-.8-.5-1-.9s-.5-.9-.6-1.5c-.1-.6-.2-1.2-.2-1.9,0-1.5.3-2.7.8-3.5.6-.8,1.4-1.2,2.4-1.2s.7,0,1,.1.6.2.9.5.5.6.6,1.1.2,1.1.2,1.8,0,.4,0,.7,0,.5,0,.7h-4.6c0,.5,0,1,.1,1.4,0,.4.2.8.4,1.1.2.3.4.5.7.7.3.2.6.2,1,.2s.6,0,1-.2.6-.3.7-.4l.5.9h0ZM460.7,116.7c0-.9,0-1.6-.4-2s-.7-.6-1.1-.6-1,.2-1.3.6-.5,1.1-.6,2h3.4Z"/>
      <path d="M468.4,122.2v-5.5c0-.9,0-1.6-.3-1.9s-.6-.6-1.1-.6-.9.1-1.2.4-.5.6-.7,1.1v6.6h-1.3v-9h.9l.2.9h0c.2-.3.5-.6.9-.8s.8-.3,1.4-.3.7,0,1,.2c.3.1.5.3.7.6.2.3.3.6.5,1,0,.4.2,1,.2,1.6v5.8h-1.3Z"/>
      <path d="M476.5,116h-.4c.2-.6.5-1.2.9-1.7s.7-.8,1.1-.8.4.1.5.3.3.7.5,1.3l.4,1.7,1.6-2c.7-.9,1.2-1.3,1.5-1.3s.5.2.5.6c0,.5-.1,1.1-.4,1.8h-.4c.2-.7.3-1.2.3-1.5s0-.2-.2-.2-.5.3-.9.9l-1.9,2.4.6,2.5c.2.7.3,1.1.4,1.3,0,.2.2.3.3.3s.2-.1.4-.4c.2-.3.3-.7.5-1.2h.5c-.5,1.7-1.1,2.6-1.8,2.6s-.5-.1-.7-.4c-.2-.3-.4-.9-.6-1.7l-.4-1.7-1.9,2.4c-.5.7-.9,1.1-1.1,1.2-.2.1-.4.2-.5.2-.3,0-.5-.2-.5-.6s.2-1,.5-1.7h.4c-.3.7-.5,1.2-.5,1.5s0,.3.2.3c.2,0,.6-.4,1.2-1.3l1.9-2.6-.5-2.2c-.2-.9-.4-1.3-.5-1.3-.2,0-.5.5-1,1.5h0Z"/>
      <path d="M487.8,114h6.2v1.2h-6.2v-1.2ZM487.8,116.9h6.2v1.2h-6.2v-1.2Z"/>
      <path d="M505.5,122.2h-5.8v-.6c.2-.3.5-.6.8-1,.3-.4.6-.9.9-1.4s.6-1,.9-1.6.6-1.1.8-1.7.4-1.1.6-1.7c.2-.6.2-1.1.2-1.6s-.1-1.1-.4-1.5-.7-.6-1.2-.6-.7,0-1,.2c-.3.1-.6.3-.8.5l-.5-.9c.3-.3.7-.5,1.2-.7.5-.2,1-.2,1.5-.2.9,0,1.6.3,2,.8s.7,1.3.7,2.2,0,1.4-.3,2.1c-.2.7-.5,1.4-.8,2.1s-.7,1.4-1,2-.7,1.2-1.1,1.7l-.7.8h0c0,0,1-.1,1-.1h3.2v1.2h0Z"/>
      <path d="M507.5,115.9c0-1.1,0-2.1.2-3s.4-1.5.7-2,.6-.9,1.1-1.1.9-.4,1.4-.4,1.1.1,1.5.4c.4.2.8.6,1,1.1.3.5.5,1.2.6,2,.1.8.2,1.8.2,3s0,2.2-.2,3-.4,1.5-.7,2c-.3.5-.6.9-1,1.1-.4.2-.9.4-1.4.4s-1.1-.1-1.5-.4-.8-.6-1-1.2c-.3-.5-.5-1.2-.6-2s-.2-1.8-.2-2.9h0ZM508.9,115.9c0,1.7.2,3,.5,4,.3.9.8,1.4,1.6,1.4s1.2-.4,1.5-1.3c.3-.9.5-2.2.5-4.1s-.2-3-.5-3.9c-.3-.9-.8-1.4-1.6-1.4s-1.2.4-1.5,1.3-.5,2.2-.5,4.1h0Z"/>
    </g>
    <g>
      <path d="M535.7,129.8c.2,0,.4,0,.6,0s.5,0,.7,0c.2,0,.5,0,.7,0s.5,0,.7,0c.9,0,1.6.1,2.2.4s1.1.7,1.5,1.3.7,1.2.8,2c.2.8.2,1.6.2,2.6s0,1.7-.2,2.5-.4,1.5-.8,2.1c-.4.6-.9,1.1-1.5,1.4s-1.4.5-2.4.5h-.6c-.2,0-.5,0-.8,0-.3,0-.5,0-.7,0-.2,0-.4,0-.5,0v-12.6h0ZM538.5,130.9h-.4c-.1,0-.3,0-.4,0-.1,0-.2,0-.4,0-.1,0-.2,0-.3,0v10.3s.1,0,.3,0c.1,0,.3,0,.4,0,.1,0,.3,0,.4,0s.2,0,.3,0c.7,0,1.2-.1,1.7-.4.4-.3.8-.7,1-1.2s.4-1.1.5-1.7.2-1.3.2-2,0-1.3-.1-1.9c0-.6-.3-1.1-.5-1.6-.2-.5-.6-.9-1-1.1s-1-.4-1.7-.4h0Z"/>
      <path d="M545.1,130.7c0-.3,0-.5.2-.7s.4-.3.6-.3.5,0,.7.3c.2.2.3.4.3.7s0,.5-.3.7-.4.2-.7.2-.5,0-.6-.2-.2-.4-.2-.7h0ZM545.3,133.4h1.3v9h-1.3v-9Z"/>
      <path d="M549,140.9c.2.1.5.3.8.4s.7.1,1,.1.7-.1,1-.3.4-.5.4-1,0-.7-.2-.9-.4-.5-.6-.6c-.3-.2-.5-.4-.8-.5s-.6-.4-.8-.6c-.3-.2-.5-.5-.6-.8s-.2-.7-.2-1.2c0-.8.2-1.3.6-1.7s1-.6,1.8-.6.9,0,1.3.1.7.2.9.4l-.3,1.1c-.2-.1-.5-.2-.8-.3s-.6-.1-.9-.1-.8,0-.9.3c-.2.2-.3.5-.3.9s0,.6.2.8.4.4.6.6c.3.2.5.4.8.5.3.2.6.4.8.6s.5.5.6.9c.2.3.2.8.2,1.3s0,.6-.2.9-.3.6-.5.8-.5.4-.8.5-.7.2-1.2.2-1,0-1.4-.1c-.4-.1-.7-.2-1-.4l.4-1.1h0Z"/>
      <path d="M554.4,133.4h1.1v-1.8l1.3-.4v2.2h1.9v1.2h-1.9v5.4c0,.5,0,.9.2,1.1s.3.4.6.4.5,0,.6,0,.4-.1.6-.2l.2,1c-.3.1-.6.2-.9.3-.3,0-.7.1-1,.1-.6,0-1-.2-1.3-.6-.3-.4-.4-1-.4-1.9v-5.5h-1.1v-1.2Z"/>
      <path d="M560.3,133.4h.9l.2.9h0c.2-.4.4-.6.7-.8.3-.2.6-.3,1-.3s.6,0,.9.2l-.2,1.3c-.3-.1-.6-.2-.8-.2-.4,0-.7.1-.9.3s-.4.5-.5.9v6.6h-1.3v-9h0Z"/>
      <path d="M565.3,130.7c0-.3,0-.5.2-.7s.4-.3.6-.3.5,0,.7.3c.2.2.3.4.3.7s0,.5-.3.7-.4.2-.7.2-.5,0-.6-.2-.2-.4-.2-.7h0ZM565.6,133.4h1.3v9h-1.3v-9Z"/>
      <path d="M569.4,129.8h1.3v4.3h0c.5-.6,1.2-.9,2-.9s1.6.4,2.1,1.1c.5.7.7,1.9.7,3.5s-.3,2.8-.9,3.6-1.5,1.2-2.6,1.2-1.1,0-1.5-.2-.8-.3-1-.4v-12.1h0ZM570.6,141.1c.2.1.4.2.6.2.2,0,.5,0,.8,0,.6,0,1.1-.3,1.5-.9.4-.6.5-1.5.5-2.8s0-1,0-1.4-.2-.8-.3-1.1-.3-.5-.5-.7-.5-.2-.8-.2-.8.1-1.1.4-.5.6-.6,1.1v5.3h0Z"/>
      <path d="M578.4,133.4v5.5c0,.9,0,1.6.3,1.9s.5.6,1,.6.5,0,.7-.1c.2-.1.4-.2.5-.4.2-.2.3-.4.4-.6s.2-.4.3-.7v-6.2h1.3v6.4c0,.4,0,.9,0,1.3s0,.9.1,1.2h-.9l-.3-1.3h0c-.2.4-.5.7-.9,1s-.9.4-1.4.4-.7,0-1-.1c-.3-.1-.5-.3-.7-.5s-.4-.6-.5-1-.2-1-.2-1.7v-5.8h1.3,0Z"/>
      <path d="M584.3,133.4h1.1v-1.8l1.3-.4v2.2h1.9v1.2h-1.9v5.4c0,.5,0,.9.2,1.1s.3.4.6.4.5,0,.6,0,.4-.1.6-.2l.2,1c-.3.1-.6.2-.9.3-.3,0-.7.1-1,.1-.6,0-1-.2-1.3-.6-.3-.4-.4-1-.4-1.9v-5.5h-1.1v-1.2Z"/>
      <path d="M590.2,130.7c0-.3,0-.5.2-.7s.4-.3.6-.3.5,0,.7.3c.2.2.3.4.3.7s0,.5-.3.7-.4.2-.7.2-.5,0-.6-.2-.2-.4-.2-.7h0ZM590.4,133.4h1.3v9h-1.3v-9Z"/>
      <path d="M593.8,137.9c0-1.6.3-2.8.8-3.6.6-.8,1.3-1.1,2.4-1.1s1.9.4,2.4,1.2.8,2,.8,3.6-.3,2.8-.8,3.6c-.6.8-1.4,1.1-2.4,1.1s-1.9-.4-2.4-1.2-.8-2-.8-3.6h0ZM595.1,137.9c0,.5,0,1,0,1.4,0,.4.2.8.3,1.1.2.3.3.6.6.7s.5.3.9.3c.6,0,1.1-.3,1.4-.8s.5-1.5.5-2.7,0-1,0-1.4c0-.4-.2-.8-.3-1.1s-.3-.6-.6-.7c-.2-.2-.5-.3-.9-.3-.6,0-1.1.3-1.4.9-.3.6-.5,1.5-.5,2.7h0Z"/>
      <path d="M606.7,142.4v-5.5c0-.9,0-1.6-.3-1.9s-.6-.6-1.1-.6-.9.1-1.2.4-.5.6-.7,1.1v6.6h-1.3v-9h.9l.2.9h0c.2-.3.5-.6.9-.8s.8-.3,1.4-.3.7,0,1,.2c.3.1.5.3.7.6.2.3.3.6.5,1,0,.4.2,1,.2,1.6v5.8h-1.3Z"/>
      <path d="M613.6,137.9c0-1.6.3-2.8.8-3.6.6-.8,1.3-1.1,2.4-1.1s1.9.4,2.4,1.2.8,2,.8,3.6-.3,2.8-.8,3.6c-.6.8-1.4,1.1-2.4,1.1s-1.9-.4-2.4-1.2-.8-2-.8-3.6h0ZM614.9,137.9c0,.5,0,1,0,1.4,0,.4.2.8.3,1.1.2.3.3.6.6.7s.5.3.9.3c.6,0,1.1-.3,1.4-.8s.5-1.5.5-2.7,0-1,0-1.4c0-.4-.2-.8-.3-1.1s-.3-.6-.6-.7c-.2-.2-.5-.3-.9-.3-.6,0-1.1.3-1.4.9-.3.6-.5,1.5-.5,2.7h0Z"/>
      <path d="M620.9,133.4h1.1v-.5c0-1.1.2-1.9.5-2.4.3-.5.9-.8,1.7-.8s.6,0,.8,0c.2,0,.5.1.8.2l-.3,1.1c-.2-.1-.4-.2-.6-.2-.2,0-.4,0-.5,0s-.4,0-.6.1c-.1.1-.2.2-.3.4s-.1.5-.1.8c0,.3,0,.7,0,1.2h1.9v1.2h-1.9v7.8h-1.3v-7.8h-1.1v-1.2h0Z"/>
      <path d="M630.2,136.5h-.4c0-1,.3-1.7.6-2.1.3-.4.7-.7,1.1-.7s.9.3,1.2.9c.3.6.5,1.6.5,2.8s-.2,3.1-.6,4.5c.7-.7,1.3-1.7,2-2.8s1-2.1,1-2.9-.1-.8-.3-1.1c-.2-.4-.3-.6-.3-.8s0-.3.2-.5c.1-.1.2-.2.4-.2.2,0,.5.1.6.4s.2.7.2,1.2c0,.8-.2,1.8-.8,3s-1.2,2.4-2.2,3.5c-1,1.2-1.9,2.2-2.9,3.1-1,.9-1.8,1.6-2.5,1.9-.7.4-1.4.6-2,.6s-1.3-.2-1.3-.8,0-.4.3-.5.4-.2.6-.2.4,0,.7.1c.4.1.8.2,1.1.2.4,0,.8-.1,1.2-.3s.9-.6,1.5-1.2c.6-.6,1-1.1,1.2-1.5s.4-1.2.6-2.3.3-2.3.3-3.5,0-1.7-.3-2.2-.4-.8-.7-.8c-.5,0-.8.6-.9,1.9h0Z"/>
      <path d="M646.7,133.4l1.6,5.3.3,1.7h0l.3-1.8,1.2-5.2h1.2l-2.4,9.2h-.7l-1.8-5.9-.2-1.5h0l-.2,1.5-1.8,5.9h-.7l-2.5-9.2h1.3l1.4,5.2.2,1.8h0l.3-1.8,1.5-5.2h1Z"/>
      <path d="M657.3,142.4v-5.5c0-.8,0-1.5-.3-1.9s-.6-.7-1.2-.7-.8.1-1.1.4-.6.7-.7,1.1v6.5h-1.3v-12.6h1.3v4.4h0c.2-.3.5-.6.9-.8.3-.2.8-.3,1.3-.3s.7,0,1,.2c.3.1.5.3.7.6.2.3.3.6.4,1.1s.1,1,.1,1.6v5.8h-1.3,0Z"/>
      <path d="M666,141.8c-.3.3-.7.5-1.1.6-.4.1-.9.2-1.4.2s-1-.1-1.5-.3c-.4-.2-.8-.5-1-.9s-.5-.9-.6-1.5c-.1-.6-.2-1.2-.2-1.9,0-1.5.3-2.7.8-3.5.6-.8,1.4-1.2,2.4-1.2s.7,0,1,.1.6.2.9.5.5.6.6,1.1.2,1.1.2,1.8,0,.4,0,.7,0,.5,0,.7h-4.6c0,.5,0,1,.1,1.4,0,.4.2.8.4,1.1.2.3.4.5.7.7.3.2.6.2,1,.2s.6,0,1-.2.6-.3.7-.4l.5.9h0ZM665,137c0-.9,0-1.6-.4-2s-.7-.6-1.1-.6-1,.2-1.3.6-.5,1.1-.6,2h3.4Z"/>
      <path d="M672.8,142.4v-5.5c0-.9,0-1.6-.3-1.9s-.6-.6-1.1-.6-.9.1-1.2.4-.5.6-.7,1.1v6.6h-1.3v-9h.9l.2.9h0c.2-.3.5-.6.9-.8s.8-.3,1.4-.3.7,0,1,.2c.3.1.5.3.7.6.2.3.3.6.5,1,0,.4.2,1,.2,1.6v5.8h-1.3Z"/>
      <path d="M680.9,136.2h-.4c.2-.6.5-1.2.9-1.7s.7-.8,1.1-.8.4.1.5.3.3.7.5,1.3l.4,1.7,1.6-2c.7-.9,1.2-1.3,1.5-1.3s.5.2.5.6c0,.5-.1,1.1-.4,1.8h-.4c.2-.7.3-1.2.3-1.5s0-.2-.2-.2-.5.3-.9.9l-1.9,2.4.6,2.5c.2.7.3,1.1.4,1.3,0,.2.2.3.3.3s.2-.1.4-.4c.2-.3.3-.7.5-1.2h.5c-.5,1.7-1.1,2.6-1.8,2.6s-.5-.1-.7-.4c-.2-.3-.4-.9-.6-1.7l-.4-1.7-1.9,2.4c-.5.7-.9,1.1-1.1,1.2-.2.1-.4.2-.5.2-.3,0-.5-.2-.5-.6s.2-1,.5-1.7h.4c-.3.7-.5,1.2-.5,1.5s0,.3.2.3c.2,0,.6-.4,1.2-1.3l1.9-2.6-.5-2.2c-.2-.9-.4-1.3-.5-1.3-.2,0-.5.5-1,1.5h0Z"/>
      <path d="M692.2,134.2h6.2v1.2h-6.2v-1.2ZM692.2,137.2h6.2v1.2h-6.2v-1.2Z"/>
      <path d="M709.8,142.4h-5.8v-.6c.2-.3.5-.6.8-1,.3-.4.6-.9.9-1.4s.6-1,.9-1.6.6-1.1.8-1.7.4-1.1.6-1.7c.2-.6.2-1.1.2-1.6s-.1-1.1-.4-1.5-.7-.6-1.2-.6-.7,0-1,.2c-.3.1-.6.3-.8.5l-.5-.9c.3-.3.7-.5,1.2-.7.5-.2,1-.2,1.5-.2.9,0,1.6.3,2,.8s.7,1.3.7,2.2,0,1.4-.3,2.1c-.2.7-.5,1.4-.8,2.1s-.7,1.4-1,2-.7,1.2-1.1,1.7l-.7.8h0c0,0,1-.1,1-.1h3.2v1.2h0Z"/>
      <path d="M717.6,129.8v1.2h-3.4v3.7h.6c1,0,1.7.3,2.3.9.5.6.8,1.6.8,2.8,0,.7-.1,1.3-.3,1.8-.2.5-.4.9-.8,1.3-.3.4-.7.6-1.1.8-.4.2-.9.3-1.4.3-.8,0-1.5-.1-2-.3l.3-1.1c.2.1.5.2.7.2.3,0,.6,0,.9,0,.7,0,1.2-.2,1.7-.8s.7-1.2.7-2.1c0-.9-.2-1.6-.7-2.1-.4-.4-1-.7-1.8-.7h-1.2c0,0,0-6.1,0-6.1h4.6Z"/>
    </g>
  </g>
  <g id="lines">
    <g>
      <line class="st1" x1="256.7" y1="163.7" x2="257.5" y2="162.5"/>
      <line class="st0" x1="259.1" y1="160.1" x2="290.6" y2="113.2"/>
      <line class="st1" x1="291.4" y1="112" x2="292.3" y2="110.8"/>
    </g>
    <g>
      <line class="st1" x1="455.8" y1="194.7" x2="456.7" y2="193.4"/>
      <line class="st2" x1="458.3" y1="191" x2="496.1" y2="134.8"/>
      <line class="st1" x1="496.9" y1="133.6" x2="497.7" y2="132.4"/>
    </g>
    <g>
      <line class="st1" x1="626.3" y1="213.2" x2="627.1" y2="211.9"/>
      <line class="st4" x1="628.8" y1="209.4" x2="665.6" y2="154.7"/>
      <line class="st1" x1="666.4" y1="153.5" x2="667.3" y2="152.2"/>
    </g>
    <g>
      <path d="M703.9,296.8c1.1.2,1.9.6,2.5,1.3.6.7.9,1.6.9,2.7s0,1-.2,1.5-.4.9-.7,1.2c-.3.4-.6.6-1,.8-.4.2-.9.3-1.4.3s-.8,0-1.1-.1c-.4,0-.7-.2-1-.3s-.5-.3-.7-.4c-.2-.1-.2-.3-.2-.4,0-.4.2-.5.5-.5s.5.2.8.5c0,0,.2.1.3.2s.2.2.4.2.3.1.5.2.4,0,.5,0c.3,0,.5,0,.7-.1.2,0,.4-.2.5-.4.1-.2.2-.5.3-.8s0-.8,0-1.3,0-1.3,0-1.9-.2-1-.4-1.4-.5-.7-.9-.9c-.4-.2-.9-.3-1.6-.3h-.2c-.2,0-.4,0-.4-.2s0-.2.3-.2h.1s0,0,.1,0c1.7,0,2.5-.9,2.5-2.7s-.8-3-2.3-3-.8,0-1.2.3-.6.5-.8.9c-.2.4-.3.9-.4,1.5s-.1,1.4-.1,2.3v5.3c0,1,0,1.9,0,2.7,0,.8,0,1.4,0,1.9s0,1,0,1.4c0,.4,0,.6,0,.9s0,.4,0,.5c0,.1,0,.2,0,.3,0,.3-.2.5-.3.6s-.4.2-.7.2-.5,0-.7-.2c-.2-.1-.2-.4-.2-.6,0-.1,0-.3,0-.5,0-.2,0-.4.2-.6s.1-.6.2-.9.1-.8.2-1.3,0-1.1.1-1.8c0-.7,0-1.5,0-2.4v-5.4c0-.9,0-1.8.2-2.4s.4-1.2.7-1.7.8-.8,1.3-1,1.1-.3,1.8-.3,1.1,0,1.6.3c.5.2.9.4,1.2.7s.6.6.8,1c.2.4.3.8.3,1.2,0,.8-.2,1.5-.7,2s-1.2.9-2.1,1.2h0Z"/>
      <path d="M708.7,308.1c0-1.4.3-2.6.8-3.4s1.2-1.3,2.1-1.3,1.6.4,2.1,1.3c.5.9.8,2,.8,3.4s-.3,2.5-.8,3.4c-.5.9-1.2,1.3-2.1,1.3s-1.6-.4-2.1-1.3c-.5-.9-.8-2-.8-3.4ZM709.8,308.1c0,1.9.2,3.1.5,3.6.3.5.8.8,1.3.8s1.1-.3,1.4-.9c.3-.6.4-1.8.4-3.5s-.2-3.1-.5-3.6c-.3-.5-.8-.8-1.3-.8s-1,.2-1.3.8-.5,1.7-.5,3.6h0Z"/>
      <path d="M716.6,297.3h5v-5h1.1v5h5v1.1h-5v5h-1.1v-5h-5v-1.1Z"/>
      <path d="M736.1,296.8c1.1.2,1.9.6,2.5,1.3.6.7.9,1.6.9,2.7s0,1-.2,1.5-.4.9-.7,1.2c-.3.4-.6.6-1,.8-.4.2-.9.3-1.4.3s-.8,0-1.1-.1c-.4,0-.7-.2-1-.3s-.5-.3-.7-.4c-.2-.1-.2-.3-.2-.4,0-.4.2-.5.5-.5s.5.2.8.5c0,0,.2.1.3.2s.2.2.4.2.3.1.5.2.4,0,.5,0c.3,0,.5,0,.7-.1.2,0,.4-.2.5-.4.1-.2.2-.5.3-.8s0-.8,0-1.3,0-1.3,0-1.9-.2-1-.4-1.4-.5-.7-.9-.9c-.4-.2-.9-.3-1.6-.3h-.2c-.2,0-.4,0-.4-.2s0-.2.3-.2h.1s0,0,.1,0c1.7,0,2.5-.9,2.5-2.7s-.8-3-2.3-3-.8,0-1.2.3-.6.5-.8.9c-.2.4-.3.9-.4,1.5s-.1,1.4-.1,2.3v5.3c0,1,0,1.9,0,2.7,0,.8,0,1.4,0,1.9s0,1,0,1.4c0,.4,0,.6,0,.9s0,.4,0,.5c0,.1,0,.2,0,.3,0,.3-.2.5-.3.6s-.4.2-.7.2-.5,0-.7-.2c-.2-.1-.2-.4-.2-.6,0-.1,0-.3,0-.5,0-.2,0-.4.2-.6s.1-.6.2-.9.1-.8.2-1.3,0-1.1.1-1.8c0-.7,0-1.5,0-2.4v-5.4c0-.9,0-1.8.2-2.4s.4-1.2.7-1.7.8-.8,1.3-1,1.1-.3,1.8-.3,1.1,0,1.6.3c.5.2.9.4,1.2.7s.6.6.8,1c.2.4.3.8.3,1.2,0,.8-.2,1.5-.7,2s-1.2.9-2.1,1.2h0Z"/>
      <path d="M744,303.4h.3v7.3c0,.6,0,1,0,1.1s0,.3.2.4c.1,0,.3.1.6.1h.3v.3h-3.1v-.3h.2c.3,0,.5,0,.6-.1,0,0,.2-.2.2-.3,0-.1,0-.5,0-1.1v-4.9c0-.6,0-1,0-1.1s0-.2-.2-.3-.3-.1-.6-.1h-.3v-.3c.8,0,1.4-.2,1.8-.5h0Z"/>
      <path d="M758.5,297.3c0,.4,0,.9-.2,1.3h-1c.1-.5.2-.9.2-1.3s0-.2,0-.3c0-.1-.2-.1-.3-.1s-.2,0-.3,0-.3.2-.6.6l-1.9,2,.9,2.7c0,.3.2.5.3.7,0,.2.2.3.4.3.2,0,.5-.2.7-.5s.3-.7.4-1h.9c-.2.8-.5,1.4-.8,1.8s-.7.8-1.1,1c-.4.2-.7.3-1.1.3-.5,0-1-.2-1.2-.6-.3-.4-.5-.9-.8-1.6l-.4-1.3-2.2,2.4c-.7.7-1.2,1-1.6,1s-.9-.4-.9-1.2.1-1.1.4-1.7h1.1c-.2.7-.4,1.2-.4,1.4s0,.3.2.3.3-.1.6-.4l2.6-2.8-.5-1.6c0-.3-.2-.6-.2-.7,0-.1-.1-.3-.2-.4,0-.1-.2-.1-.3-.1-.4,0-.7.5-1,1.5h-.9c.2-.7.5-1.3.8-1.8s.6-.8,1-1.1.7-.4,1.1-.4,1,.2,1.3.6c.3.4.6.9.8,1.6l.2.5,1.6-1.7c.6-.6,1.2-1,1.7-1s.8.2.9.5.2.6.2.9h0Z"/>
    </g>
  </g>
</svg>