<?xml version="1.0" encoding="UTF-8"?>
<svg xmlns="http://www.w3.org/2000/svg" version="1.1" viewBox="0 0 820 640">
  <!-- Generator: Adobe Illustrator 29.2.1, SVG Export Plug-In . SVG Version: 2.1.0 Build 116)  -->
  <g id="Layer_2">
    <g>
      <g>
        <path d="M70,257.3c0-74.7,23.4-144,63.3-200.8,3.9-5.6,3.7-13.1-.6-18.5l-12.5-15.6c-6.3-7.9-18.5-7.7-24.5.6C48.1,88.9,20,169.8,20,257.3s21.1,146.8,57.8,207.3c5.3,8.8,17.6,10,24.6,2.4l13.5-14.9c4.5-5,5.3-12.3,1.9-18.1-30.4-51.9-47.8-112.2-47.8-176.7Z"/>
        <path d="M750,257.3c0,64.5-17.4,124.8-47.8,176.7-3.4,5.8-2.6,13.1,1.9,18.1l13.5,14.9c6.9,7.6,19.2,6.4,24.6-2.4,36.7-60.4,57.8-131.4,57.8-207.3s-28.1-168.5-75.8-234.3c-6-8.2-18.1-8.5-24.5-.6l-12.5,15.6c-4.3,5.3-4.5,12.9-.6,18.5,39.9,56.8,63.3,126.1,63.3,200.8Z"/>
      </g>
      <g>
        <path d="M190,257.3c0-43.3,11-84.1,30.4-119.6s2.4-12.1-1.5-17l-12.9-16.2c-6.8-8.5-19.9-7.4-25.4,2-25.8,44.3-40.6,95.8-40.6,150.8s10.2,88.8,28.4,127.5c4.7,9.9,17.9,11.8,25.3,3.7l14.1-15.5c4.1-4.5,5.1-10.9,2.7-16.5-13.2-30.4-20.5-64-20.5-99.3Z"/>
        <path d="M630,257.3c0,35.3-7.3,68.8-20.5,99.3s-1.3,12,2.7,16.5l14.1,15.5c7.4,8.1,20.6,6.2,25.3-3.7,18.2-38.7,28.4-81.9,28.4-127.5s-14.8-106.5-40.6-150.8-18.6-10.4-25.4-2l-12.9,16.2c-3.9,4.8-4.5,11.5-1.5,17,19.4,35.5,30.4,76.3,30.4,119.6Z"/>
      </g>
    </g>
  </g>
  <g id="Layer_1">
    <path d="M410,111.3c-17.7,0-32,14.3-32,32v19.2c-73,14.8-128,79.4-128,156.8v18.8c0,47-17.3,92.4-48.5,127.6l-7.4,8.3c-8.4,9.4-10.4,22.9-5.3,34.4s16.6,18.9,29.2,18.9h384c12.6,0,24-7.4,29.2-18.9s3.1-25-5.3-34.4l-7.4-8.3c-31.2-35.2-48.5-80.5-48.5-127.6v-18.8c0-77.4-55-142-128-156.8v-19.2c0-17.7-14.3-32-32-32ZM455.3,604.6c12-12,18.7-28.3,18.7-45.3h-128c0,17,6.7,33.3,18.7,45.3s28.3,18.7,45.3,18.7,33.3-6.7,45.3-18.7Z"/>
  </g>
</svg>