<?xml version="1.0" encoding="UTF-8"?>
<svg xmlns="http://www.w3.org/2000/svg" version="1.1" viewBox="0 0 590 630">
  <!-- Generator: Adobe Illustrator 29.2.1, SVG Export Plug-In . SVG Version: 2.1.0 Build 116)  -->
  <defs>
    <style>
      .st0 {
        display: none;
      }
    </style>
  </defs>
  <g id="Layer_1" class="st0">
    <path d="M470,277c0-106-86-192-192-192s-192,86-192,192,86,192,192,192,192-86,192-192ZM22,277C22,135.6,136.6,21,278,21s256,114.6,256,256-114.6,256-256,256S22,418.4,22,277ZM278,357c44.2,0,80-35.8,80-80s-35.8-80-80-80-80,35.8-80,80,35.8,80,80,80ZM278,133c79.5,0,144,64.5,144,144s-64.5,144-144,144-144-64.5-144-144,64.5-144,144-144ZM246,277c0-17.7,14.3-32,32-32s32,14.3,32,32-14.3,32-32,32-32-14.3-32-32Z"/>
  </g>
  <g id="Layer_2_copy">
    <g>
      <path d="M278,133c-79.5,0-144,64.5-144,144s44.9,122.2,105.9,138.9v-68.5c-25-13.5-41.9-40-41.9-70.4,0-44.2,35.8-80,80-80s80,35.8,80,80,0,.3,0,.5l59.7,34.5c2.8-11.2,4.3-22.9,4.3-35,0-79.5-64.5-144-144-144Z"/>
      <path d="M239.9,465.2c-87.8-17.7-153.9-95.2-153.9-188.2s86-192,192-192,192,86,192,192-3.3,40.9-9.5,59.7h.1c0,0,56.2,32.5,56.2,32.5,11.1-28.6,17.1-59.7,17.1-92.2,0-141.4-114.6-256-256-256S22,135.6,22,277s94.6,234.8,217.9,253.2v-65Z"/>
    </g>
  </g>
  <g id="Layer_2">
    <polygon points="277.7 274.8 277.7 442.4 277.7 609.9 394.2 476.5 568 442.4 422.8 358.6 277.7 274.8"/>
  </g>
</svg>