<?xml version="1.0" encoding="UTF-8"?>
<svg id="Layer_1" data-name="Layer 1" xmlns="http://www.w3.org/2000/svg" viewBox="0 0 730 430">
  <defs>
    <style>
      .cls-1 {
        fill: #fff;
        stroke: #000;
      }

      .cls-1, .cls-2 {
        stroke-width: 2px;
      }

      .cls-1, .cls-2, .cls-3 {
        stroke-miterlimit: 10;
      }

      .cls-2 {
        stroke: #666;
        stroke-dasharray: 0 0 8 6;
      }

      .cls-2, .cls-3 {
        fill: none;
      }

      .cls-4 {
        fill: #0c9;
      }

      .cls-4, .cls-5 {
        stroke-width: 0px;
      }

      .cls-5 {
        fill: #000;
      }

      .cls-3 {
        stroke: #06c;
        stroke-width: 4px;
      }
    </style>
  </defs>
  <path class="cls-4" d="M225.03,203.6l-9.81,21.29c-39.2,85.07-101.53,138.26-169.43,144.58h0v11.25h179.24v-177.13Z"/>
  <path class="cls-3" d="M45.79,369.1h0c67.89-6.32,130.23-59.52,169.43-144.58l65.67-142.52c41.08-89.16,127.47-89.16,168.56,0l65.67,142.52c39.2,85.07,101.53,138.26,169.43,144.58h0"/>
  <line class="cls-1" x1="10.59" y1="383.42" x2="719.41" y2="383.42"/>
  <line class="cls-1" x1="365" y1="392.42" x2="365" y2="374.42"/>
  <line class="cls-2" x1="225.03" y1="392.42" x2="225.03" y2="15.51"/>
  <path class="cls-5" d="M370.75,408.28c0,1.22-.07,2.25-.22,3.08-.15.83-.36,1.54-.65,2.12-.28.58-.63,1.1-1.03,1.56-1.08,1.22-2.37,1.83-3.85,1.83-.63,0-1.29-.14-1.96-.41s-1.29-.72-1.87-1.35c-.58-.63-1.04-1.49-1.4-2.58-.36-1.09-.53-2.4-.53-3.94,0-1.39.08-2.55.23-3.49.16-.93.34-1.63.55-2.1s.48-.93.8-1.4c1.06-1.48,2.45-2.22,4.16-2.22s3.15.74,4.16,2.22c.47.63.85,1.44,1.14,2.41s.44,2.4.44,4.27ZM367.34,408.13v-1.68c0-1.25-.05-2.28-.15-3.07s-.32-1.46-.66-1.98-.85-.79-1.53-.79c-.72,0-1.25.28-1.58.85s-.54,1.35-.63,2.36-.13,2.44-.13,4.3.04,3.21.13,4.22c.08,1.01.29,1.81.63,2.4.33.59.86.88,1.58.88.53,0,.96-.17,1.29-.51.33-.34.57-.81.71-1.4s.23-1.22.27-1.88.06-1.57.06-2.72v-.99Z"/>
  <path class="cls-5" d="M230.52,405.2c0,.27-.26.73-.77,1.36-.52.64-1.22,1.35-2.1,2.14s-1.94,1.61-3.18,2.48c-1.2.83-2.09,1.48-2.68,1.96.54-.15.95-.26,1.23-.32.27-.06.69-.09,1.25-.09.64,0,1.29.1,1.94.29.38.1.67.15.86.15.4,0,.71-.1.93-.29.22-.19.42-.43.61-.73h1.14c-.18.49-.46,1.01-.84,1.57-.38.55-.86,1.03-1.45,1.42s-1.25.58-2.01.58c-.41,0-.76-.06-1.07-.17-.3-.12-.64-.29-1.02-.51-.42-.27-.77-.48-1.05-.62-.28-.14-.58-.21-.91-.21-.49,0-.89.24-1.21.72-.18.3-.32.51-.43.62s-.26.17-.44.17-.33-.07-.44-.2-.18-.28-.18-.42c0-.36.22-.77.65-1.24s.96-.96,1.59-1.45,1.57-1.19,2.82-2.09c1.88-1.37,3.25-2.46,4.1-3.28-.52.24-1.18.36-1.99.36-.27,0-.53-.02-.77-.06s-.59-.11-1.03-.22c-.57-.13-.92-.19-1.07-.19-.39,0-.68.08-.88.25s-.38.41-.55.71h-1.09c.32-.78.79-1.52,1.4-2.23s1.45-1.07,2.49-1.07c.58,0,1.29.24,2.13.72.22.14.43.26.62.36.19.11.35.18.47.21.12.04.25.06.37.06.46,0,.85-.27,1.17-.81.12-.19.22-.32.31-.41.09-.09.22-.13.39-.13.24,0,.41.07.51.21.11.14.16.28.16.41Z"/>
  <g>
    <path class="cls-5" d="M139.43,353.79c0,.9-.17,1.78-.51,2.66-.34.88-.82,1.67-1.43,2.38-.61.71-1.34,1.27-2.18,1.69s-1.72.63-2.64.63c-.74,0-1.34-.12-1.78-.37s-.83-.58-1.18-.99l-1.36,4.44c-.12.39-.18.64-.18.76,0,.29.15.48.44.58.3.1.76.15,1.4.15h.62l-.33,1.12h-8.04l.34-1.12h.5c.58,0,1-.04,1.26-.13s.47-.24.6-.47.3-.67.5-1.32l3.3-10.82c.12-.37.18-.68.18-.91,0-.14-.04-.27-.11-.38s-.17-.17-.29-.17c-.22,0-.48.15-.79.45-.3.3-.63.84-.96,1.63h-1.22c.23-.54.48-1.05.76-1.53.27-.48.7-.94,1.26-1.39s1.25-.67,2.04-.67c1.42,0,2.13.72,2.13,2.16,1.34-1.44,2.71-2.16,4.13-2.16.9,0,1.61.22,2.15.65s.9.93,1.1,1.5c.2.57.3,1.11.3,1.62ZM136.3,353.49c0-.52-.14-.99-.41-1.41s-.67-.62-1.17-.62c-.59,0-1.16.26-1.69.77s-1.01,1.18-1.43,1.98c-.26.51-.48,1.02-.65,1.53-.17.51-.31.98-.4,1.42s-.14.78-.14,1.05c0,.54.17,1.01.5,1.41s.77.6,1.32.6c.8,0,1.51-.38,2.13-1.16s1.11-1.69,1.45-2.75.51-2.01.51-2.82Z"/>
    <path class="cls-5" d="M147.67,354.44l-.7,2.26h-6.06l.67-2.26h6.08Z"/>
    <path class="cls-5" d="M162.05,351.56c-.4,0-.7.12-.9.37s-.48.73-.84,1.45l-3.82,7.71h-1.78l-4.37-8.4c-.26-.52-.46-.82-.58-.91s-.42-.16-.89-.2v-1.17h6.21v1.17c-.45.02-.78.06-.98.12-.21.06-.31.2-.31.4,0,.14.08.38.25.72l2.65,5.15,2.53-5.08c.17-.36.25-.62.25-.77,0-.24-.1-.39-.3-.45-.2-.06-.52-.09-.97-.09v-1.17h3.85v1.17Z"/>
    <path class="cls-5" d="M175.95,358.11c0,.64-.13,1.19-.39,1.64-.26.45-.62.79-1.06,1-.44.21-.95.32-1.5.32-.71,0-1.3-.17-1.78-.5-.47-.33-.76-.73-.85-1.2-1.41,1.13-2.84,1.7-4.27,1.7-.91,0-1.66-.22-2.25-.67-.58-.44-.88-1.03-.88-1.76,0-.6.16-1.14.47-1.63.31-.49.77-.92,1.38-1.3.6-.38,1.33-.72,2.16-1.01.84-.29,1.88-.6,3.14-.92v-.72c0-.6-.14-1.07-.43-1.42-.28-.34-.81-.51-1.57-.51-.65,0-1.12.14-1.41.41s-.48.68-.57,1.23c-.07.39-.19.71-.37.96-.18.25-.56.38-1.14.38-.36,0-.67-.1-.94-.3s-.41-.5-.41-.9c0-.79.43-1.47,1.28-2.06s2.17-.88,3.94-.88c1.86,0,3.14.31,3.84.94s1.05,1.46,1.05,2.51v4.01c0,.51.01.88.04,1.12s.1.42.21.54c.11.12.29.18.54.18.22,0,.41-.11.58-.34s.25-.5.25-.83h.94ZM170.12,358.21v-3.15c-1.61.51-2.63,1-3.07,1.49-.44.49-.65.96-.65,1.43,0,.39.12.7.36.94s.57.36,1,.36c.47,0,.88-.1,1.23-.29s.73-.45,1.13-.77Z"/>
    <path class="cls-5" d="M183.59,360.79h-7.3v-1.17h.55c.49,0,.85-.07,1.07-.2s.36-.33.41-.57.08-.61.08-1.08v-10.82c0-.61-.14-1-.43-1.17s-.84-.25-1.68-.25v-1.17l5.38-1.09v14.5c0,.47.02.83.07,1.07.05.24.18.43.41.57.22.14.58.21,1.07.21h.37v1.17Z"/>
    <path class="cls-5" d="M199.02,360.71c-.25.02-.67.04-1.28.08-.61.04-1.29.09-2.05.17-.76.07-1.36.15-1.82.25v-1.85c-1.09,1.25-2.4,1.88-3.92,1.88-1.11,0-1.93-.24-2.46-.71s-.86-1-.99-1.57c-.13-.57-.19-1.18-.19-1.83v-3.75c0-.5-.03-.87-.09-1.1-.06-.23-.22-.41-.47-.53-.25-.12-.67-.18-1.26-.18v-1.17h5.09v7c0,1.44.55,2.16,1.66,2.16.63,0,1.17-.23,1.61-.68.44-.45.78-.89,1.02-1.3v-4.19c0-.52-.03-.9-.1-1.13s-.23-.4-.49-.51c-.26-.11-.7-.17-1.31-.17v-1.17h5.17v7.64c0,.4.04.69.11.89s.25.34.52.45c.27.11.69.16,1.24.17v1.17Z"/>
    <path class="cls-5" d="M211.89,355.2h-7.81c0,.16.03.5.07,1.03s.16,1.06.36,1.61.54,1.01,1.03,1.39c.49.38,1.14.56,1.96.56.45,0,.99-.11,1.62-.34s1.19-.67,1.65-1.32l.99.67c-1,1.6-2.59,2.4-4.76,2.4-.97,0-1.86-.14-2.66-.42s-1.48-.67-2.04-1.17-.99-1.09-1.28-1.76-.44-1.41-.44-2.18c0-1.02.25-1.97.74-2.84s1.2-1.57,2.13-2.08,1.98-.77,3.16-.77,2.14.25,2.94.75,1.39,1.15,1.77,1.94.57,1.64.57,2.54ZM208.74,354.04c0-1.93-.76-2.89-2.29-2.89-.74,0-1.3.27-1.69.8s-.61,1.23-.65,2.09h4.63Z"/>
  </g>
</svg>